<?xml version="1.0" encoding="UTF-8" standalone="no"?>
<!-- Created with Inkscape (http://www.inkscape.org/) -->

<svg
   xmlns:dc="http://purl.org/dc/elements/1.1/"
   xmlns:cc="http://creativecommons.org/ns#"
   xmlns:rdf="http://www.w3.org/1999/02/22-rdf-syntax-ns#"
   xmlns:svg="http://www.w3.org/2000/svg"
   xmlns="http://www.w3.org/2000/svg"
   xmlns:sodipodi="http://sodipodi.sourceforge.net/DTD/sodipodi-0.dtd"
   xmlns:inkscape="http://www.inkscape.org/namespaces/inkscape"
   width="94.977493mm"
   height="45.42268mm"
   viewBox="0 0 94.977493 45.42268"
   version="1.1"
   id="svg7144"
   inkscape:version="0.92.4 (unknown)"
   sodipodi:docname="many-clusters.svg">
  <defs
     id="defs7138" />
  <sodipodi:namedview
     id="base"
     pagecolor="#ffffff"
     bordercolor="#666666"
     borderopacity="1.0"
     inkscape:pageopacity="0.0"
     inkscape:pageshadow="2"
     inkscape:zoom="1"
     inkscape:cx="99.484903"
     inkscape:cy="-171.30472"
     inkscape:document-units="mm"
     inkscape:current-layer="layer1"
     showgrid="false"
     showborder="false"
     inkscape:pagecheckerboard="true"
     inkscape:window-width="1920"
     inkscape:window-height="1007"
     inkscape:window-x="0"
     inkscape:window-y="36"
     inkscape:window-maximized="1" />
  <metadata
     id="metadata7141">
    <rdf:RDF>
      <cc:Work
         rdf:about="">
        <dc:format>image/svg+xml</dc:format>
        <dc:type
           rdf:resource="http://purl.org/dc/dcmitype/StillImage" />
        <dc:title />
      </cc:Work>
    </rdf:RDF>
  </metadata>
  <g
     inkscape:label="Layer 1"
     inkscape:groupmode="layer"
     id="layer1"
     transform="translate(227.40538,-58.086279)">
    <path
       sodipodi:nodetypes="ccccccccccccccccccc"
       style="fill:none;stroke:#cd2394;stroke-width:0.62339354;stroke-linecap:butt;stroke-linejoin:miter;stroke-miterlimit:4;stroke-dasharray:none;stroke-opacity:1"
       d="m -188.12029,72.579224 c 0.0663,0.062 4.65033,4.47212 4.7166,4.5342 0.0181,0.017 0.0392,0.0311 0.0542,0.0509 0.0159,0.0207 0.0215,0.0481 0.0371,0.069 0.0151,0.0196 0.0362,0.0338 0.0542,0.0508 0.0482,0.0451 0.0964,0.0903 0.1446,0.13545 0.0181,0.017 0.0403,0.0304 0.0542,0.0509 0.0295,0.0431 0.0442,0.0953 0.0747,0.1377 0.0192,0.0268 0.0482,0.0451 0.0723,0.0678 0.0542,0.0509 0.10844,0.1016 0.16266,0.15238 0.17472,0.163681 0.34943,0.327351 0.52414,0.491031 0.51209,0.47973 1.02418,0.95945 1.53626,1.439179 0.18677,0.174961 0.37353,0.349931 0.56029,0.524881 0.0723,0.0678 0.14459,0.13545 0.21689,0.203179 0.0301,0.0283 0.0549,0.0636 0.0904,0.0847 0.0318,0.0188 0.0733,0.0147 0.10617,0.0316 0.0219,0.0115 0.0362,0.0338 0.0542,0.0509 0.0723,0.0678 0.14459,0.13545 0.21689,0.203171 0.18073,0.16932 6.58574,6.185289 6.76648,6.354609"
       id="path4860"
       inkscape:connector-curvature="0" />
    <path
       inkscape:connector-curvature="0"
       id="path4862"
       d="m -192.07992,84.983153 c -2.7e-4,-0.0908 -8e-4,-0.181629 -0.001,-0.272428 -8e-5,-0.02479 -0.004,-0.0498 -2.7e-4,-0.0743 0.004,-0.02569 0.0202,-0.0486 0.0246,-0.0743 0.004,-0.0245 -2e-4,-0.0496 -2.6e-4,-0.0743 -2.6e-4,-0.0661 -2.6e-4,-0.132091 -7.9e-4,-0.19814 -7e-5,-0.0248 -0.006,-0.0501 -2.7e-4,-0.0743 0.0111,-0.051 0.0389,-0.0975 0.0489,-0.1488 0.006,-0.0324 -2.6e-4,-0.0661 -2.6e-4,-0.099 -2.7e-4,-0.0743 -2.7e-4,-0.1486 -8e-4,-0.2229 -7.9e-4,-0.2394 -0.002,-0.47879 -0.003,-0.71821 -0.003,-0.70168 -0.005,-1.40337 -0.008,-2.10506 l -0.003,-0.767731 c -2.6e-4,-0.0991 -7.9e-4,-0.19812 -0.001,-0.29718 -1.4e-4,-0.0413 0.009,-0.0836 -2.6e-4,-0.12383 -0.008,-0.036 -0.0397,-0.0634 -0.0499,-0.0988 -0.007,-0.0238 -2.1e-4,-0.0495 -2.7e-4,-0.0743 -2.6e-4,-0.0991 -7.9e-4,-0.19813 -0.001,-0.29719 -10e-4,-0.247659 0.0682,-3.367279 0.0672,-3.614939"
       style="fill:none;stroke:#cd2394;stroke-width:0.62339354;stroke-linecap:butt;stroke-linejoin:miter;stroke-miterlimit:4;stroke-dasharray:none;stroke-opacity:1"
       sodipodi:nodetypes="cccccccccccscccccsc" />
    <path
       inkscape:connector-curvature="0"
       id="path4866"
       d="m -184.59396,70.433583 c 0.0908,-2.5e-4 0.18161,-7.4e-4 0.27242,-7.4e-4 0.0248,-5e-5 0.0499,-0.004 0.0743,-2.3e-4 0.0258,0.004 0.0486,0.0202 0.0743,0.0247 0.0245,0.004 0.0495,-1.79e-4 0.0743,-2.39e-4 0.066,-1.9e-4 0.13209,-2.4e-4 0.19813,-7.41e-4 0.0248,-4e-5 0.0501,-0.005 0.0743,-2.1e-4 0.051,0.0112 0.0975,0.039 0.14876,0.049 0.0324,0.006 0.066,-2e-4 0.0991,-2.65e-4 0.0743,-2.1e-4 0.14859,-2.3e-4 0.22289,-3.7e-4 0.2394,-3.71e-4 0.4788,-10e-4 0.7182,-0.002 0.7017,-0.002 1.40338,-0.004 2.10508,-0.006 l 0.76773,-0.002 c 0.0991,-2.64e-4 0.19813,-7.4e-4 0.29719,-7.4e-4 0.0413,-1e-4 0.0835,0.009 0.12383,-2.6e-4 0.036,-0.008 0.0634,-0.0396 0.0989,-0.0498 0.0238,-0.007 0.0495,-1.5e-4 0.0743,-2.1e-4 0.0991,-2.91e-4 0.19812,-7.68e-4 0.29718,-7.68e-4 0.24766,-3.7e-4 3.36721,0.0713 3.61487,0.0705"
       style="fill:none;stroke:#cd2394;stroke-width:0.62339354;stroke-linecap:butt;stroke-linejoin:miter;stroke-miterlimit:4;stroke-dasharray:none;stroke-opacity:1"
       sodipodi:nodetypes="cccccccccccscccccsc" />
    <path
       sodipodi:nodetypes="ccccccccccccccccccc"
       style="fill:none;stroke:#cd2394;stroke-width:0.62339354;stroke-linecap:butt;stroke-linejoin:miter;stroke-miterlimit:4;stroke-dasharray:none;stroke-opacity:1"
       d="m -197.72482,70.223203 c -0.0879,-0.0228 -6.26662,-1.534569 -6.35452,-1.55732 -0.024,-0.006 -0.0472,-0.0165 -0.0719,-0.0186 -0.026,-0.002 -0.0521,0.008 -0.0781,0.005 -0.0247,-0.002 -0.048,-0.0125 -0.0719,-0.0186 -0.0639,-0.0165 -0.12788,-0.0331 -0.19182,-0.0497 -0.024,-0.006 -0.0472,-0.0178 -0.0719,-0.0186 -0.0522,-0.002 -0.10413,0.0137 -0.15626,0.0107 -0.0329,-0.002 -0.0639,-0.0165 -0.0959,-0.0248 -0.0719,-0.0186 -0.14385,-0.0372 -0.21578,-0.0558 -0.23177,-0.0599 -0.46353,-0.11994 -0.6953,-0.17993 -0.67931,-0.17579 -1.35863,-0.3516 -2.03795,-0.52739 -0.24775,-0.064 -0.4955,-0.12823 -0.74325,-0.19235 -0.0959,-0.0248 -0.19181,-0.0496 -0.28771,-0.0744 -0.04,-0.0104 -0.0831,-0.0123 -0.11987,-0.031 -0.0329,-0.0168 -0.0517,-0.0541 -0.0835,-0.0728 -0.0214,-0.0124 -0.048,-0.0125 -0.0719,-0.0186 -0.0959,-0.0248 -0.19181,-0.0496 -0.28771,-0.0744 -0.23976,-0.0621 -0.79418,-0.15748 -1.03394,-0.21952"
       id="path4970"
       inkscape:connector-curvature="0" />
    <path
       inkscape:connector-curvature="0"
       id="path4972"
       d="m -198.01794,73.540904 c -0.0815,0.0401 -5.75161,2.923089 -5.8331,2.96316 -0.0222,0.0111 -0.0466,0.0183 -0.0667,0.0328 -0.0212,0.0153 -0.0346,0.0397 -0.0556,0.0551 -0.0202,0.0144 -0.0445,0.0218 -0.0667,0.0328 -0.0593,0.0292 -0.11852,0.0583 -0.17779,0.0874 -0.0222,0.0111 -0.0474,0.0173 -0.0667,0.0328 -0.0407,0.0326 -0.0701,0.0782 -0.11153,0.10995 -0.0262,0.02 -0.0593,0.0292 -0.0889,0.0437 -0.0667,0.0328 -0.13333,0.0657 -0.2,0.0984 -0.21482,0.10567 -0.42964,0.21132 -0.64446,0.316989 -0.62965,0.309711 -1.2593,0.619411 -1.88895,0.92912 -0.22964,0.112951 -0.45927,0.225891 -0.68891,0.338851 -0.0889,0.0438 -0.17779,0.0874 -0.26667,0.13116 -0.037,0.0182 -0.071,0.0449 -0.11112,0.0547 -0.0359,0.009 -0.0744,-0.007 -0.11076,-7.41e-4 -0.0243,0.005 -0.0445,0.0217 -0.0667,0.0328 -0.0889,0.0437 -0.17779,0.0875 -0.26668,0.13117 -0.22223,0.10931 -0.70478,0.3985 -0.927,0.50781"
       style="fill:none;stroke:#cd2394;stroke-width:0.62339354;stroke-linecap:butt;stroke-linejoin:miter;stroke-miterlimit:4;stroke-dasharray:none;stroke-opacity:1"
       sodipodi:nodetypes="ccccccccccccccccccc" />
    <path
       inkscape:connector-curvature="0"
       id="path4974"
       d="m -198.2871,87.011832 c -0.0803,-0.0423 -5.74672,-2.932698 -5.82705,-2.975028 -0.022,-0.0116 -0.0422,-0.0269 -0.0657,-0.0346 -0.0248,-0.008 -0.0525,-0.005 -0.0773,-0.0126 -0.0235,-0.008 -0.0438,-0.0232 -0.0657,-0.0346 -0.0584,-0.0308 -0.11686,-0.0615 -0.17529,-0.0923 -0.022,-0.0116 -0.0418,-0.0281 -0.0657,-0.0346 -0.0504,-0.0138 -0.10449,-0.0107 -0.15454,-0.0255 -0.0316,-0.009 -0.0584,-0.0308 -0.0877,-0.0462 -0.0657,-0.0346 -0.13145,-0.0693 -0.19718,-0.10389 -0.2118,-0.11161 -0.42359,-0.223201 -0.6354,-0.3348 -0.62078,-0.32712 -1.24157,-0.65423 -1.86236,-0.98132 -0.2264,-0.11931 -0.4528,-0.2386 -0.67921,-0.357911 -0.0876,-0.0461 -0.17529,-0.0923 -0.26292,-0.13853 -0.0365,-0.0192 -0.0781,-0.031 -0.10955,-0.0577 -0.0281,-0.0239 -0.0379,-0.0645 -0.0645,-0.09 -0.018,-0.017 -0.0438,-0.0232 -0.0657,-0.0346 -0.0876,-0.0462 -0.17528,-0.0924 -0.26292,-0.13855 -0.21911,-0.115441 -0.73679,-0.33565 -0.95589,-0.45109"
       style="fill:none;stroke:#cd2394;stroke-width:0.62339354;stroke-linecap:butt;stroke-linejoin:miter;stroke-miterlimit:4;stroke-dasharray:none;stroke-opacity:1"
       sodipodi:nodetypes="ccccccccccccccccccc" />
    <path
       sodipodi:nodetypes="ccccccccccccccccccc"
       style="fill:none;stroke:#cd2394;stroke-width:0.62339354;stroke-linecap:butt;stroke-linejoin:miter;stroke-miterlimit:4;stroke-dasharray:none;stroke-opacity:1"
       d="m -197.07983,90.875903 c -0.0885,0.0205 -6.26531,1.53992 -6.35377,1.560441 -0.0242,0.006 -0.0495,0.007 -0.0724,0.0168 -0.0241,0.01019 -0.0427,0.0309 -0.0667,0.041 -0.0229,0.009 -0.0483,0.01119 -0.0724,0.0168 -0.0643,0.0149 -0.12866,0.0299 -0.19301,0.0447 -0.0242,0.006 -0.0501,0.006 -0.0724,0.0168 -0.0471,0.02259 -0.086,0.0602 -0.13359,0.0818 -0.0301,0.0136 -0.0643,0.0149 -0.0965,0.02249 -0.0724,0.0168 -0.14475,0.0336 -0.21712,0.0503 -0.23321,0.0541 -0.46642,0.10818 -0.69963,0.162279 -0.68355,0.15857 -1.36709,0.317119 -2.05064,0.475671 -0.24929,0.0578 -0.49858,0.11566 -0.74789,0.173479 -0.0965,0.02241 -0.193,0.0447 -0.28949,0.0672 -0.0402,0.009 -0.0794,0.0276 -0.12063,0.028 -0.0369,2.65e-4 -0.0708,-0.024 -0.1077,-0.0259 -0.0247,-7.94e-4 -0.0483,0.01119 -0.0724,0.0168 -0.0965,0.02241 -0.193,0.0447 -0.2895,0.0672 -0.24125,0.056 -0.77688,0.22796 -1.01813,0.28393"
       id="path4976"
       inkscape:connector-curvature="0" />
    <path
       inkscape:connector-curvature="0"
       id="path4850"
       d="m -200.27711,63.509654 c 0.43792,1.951079 -0.82952,3.780029 -0.52843,5.740979 0.19444,1.9456 -0.45044,3.87535 -0.18355,5.80747 0.72276,0.766021 -0.42029,2.732241 1.12308,2.212111 2.46899,0.453469 4.894,-0.24701 7.3329,-0.50673 1.72832,-0.006 3.43715,0.240739 5.17643,0.164489 1.17742,-0.11903 3.87998,1.19098 3.99602,-0.59952 0.11177,-1.87438 -0.1262,-3.764019 0.0791,-5.62598 0.55144,-1.87675 0.57565,-3.830649 0.387,-5.764309 -0.006,-1.21384 0.34371,-2.489131 -1.36273,-2.15417 -4.36736,-0.300441 -8.73977,0.17916 -13.11153,0.16188 -0.51217,0.299159 -3.65637,-0.511741 -2.90833,0.56378 z"
       style="fill:#cce5ff;fill-opacity:1;stroke:#000000;stroke-width:0.09906279px;stroke-linecap:butt;stroke-linejoin:miter;stroke-opacity:1" />
    <path
       inkscape:connector-curvature="0"
       id="path4858"
       d="m -187.60615,86.038084 c 0.0714,-0.0561 5.12282,-3.92202 5.19419,-3.97816 0.0195,-0.0153 0.0366,-0.034 0.0584,-0.046 0.0229,-0.0125 0.0508,-0.014 0.0737,-0.0263 0.0217,-0.012 0.0389,-0.0307 0.0584,-0.046 0.0519,-0.0408 0.10383,-0.0817 0.15573,-0.12249 0.0195,-0.0153 0.036,-0.0352 0.0584,-0.046 0.0471,-0.0226 0.10086,-0.0294 0.14738,-0.053 0.0294,-0.015 0.0519,-0.0408 0.0779,-0.0613 0.0584,-0.0459 0.1168,-0.0918 0.17519,-0.13778 0.18817,-0.14801 0.37633,-0.29602 0.56451,-0.44403 0.55153,-0.4338 1.10306,-0.86762 1.65459,-1.30142 0.20115,-0.15821 0.40229,-0.31642 0.60344,-0.47463 0.0779,-0.0612 0.15573,-0.1225 0.23359,-0.18374 0.0325,-0.0255 0.0712,-0.0446 0.0973,-0.0765 0.0234,-0.0286 0.0256,-0.0703 0.0472,-0.10019 0.0146,-0.0199 0.0389,-0.0307 0.0584,-0.046 0.0778,-0.0612 0.15573,-0.12249 0.23359,-0.18373 0.19466,-0.15311 7.10849,-5.57666 7.30315,-5.72977"
       style="fill:none;stroke:#cd2394;stroke-width:0.62339354;stroke-linecap:butt;stroke-linejoin:miter;stroke-miterlimit:4;stroke-dasharray:none;stroke-opacity:1"
       sodipodi:nodetypes="ccccccccccccccccccc" />
    <path
       sodipodi:nodetypes="cccccccccccscccccsc"
       style="fill:none;stroke:#cd2394;stroke-width:0.62339354;stroke-linecap:butt;stroke-linejoin:miter;stroke-miterlimit:4;stroke-dasharray:none;stroke-opacity:1"
       d="m -168.12352,84.983153 c -2.6e-4,-0.0908 -7.9e-4,-0.181629 -10e-4,-0.272428 -7e-5,-0.02479 -0.004,-0.0498 -2.7e-4,-0.0743 0.004,-0.02569 0.0202,-0.0486 0.0246,-0.0743 0.004,-0.0245 -2e-4,-0.0496 -2.6e-4,-0.0743 -2.6e-4,-0.0661 -2.7e-4,-0.132091 -7.9e-4,-0.19814 -8e-5,-0.0248 -0.006,-0.0501 -2.7e-4,-0.0743 0.0111,-0.051 0.0389,-0.0975 0.0489,-0.1488 0.006,-0.0324 -2.6e-4,-0.0661 -2.6e-4,-0.099 -2.7e-4,-0.0743 -2.7e-4,-0.1486 -8e-4,-0.2229 -7.9e-4,-0.2394 -0.002,-0.47879 -0.003,-0.71821 -0.003,-0.70168 -0.005,-1.40337 -0.008,-2.10506 l -0.003,-0.767731 c -2.6e-4,-0.0991 -7.9e-4,-0.19812 -0.001,-0.29718 -1.4e-4,-0.0413 0.009,-0.0836 -2.6e-4,-0.12383 -0.008,-0.036 -0.0397,-0.0634 -0.0499,-0.0988 -0.007,-0.0238 -2e-4,-0.0495 -2.7e-4,-0.0743 -2.6e-4,-0.0991 -7.9e-4,-0.19813 -0.001,-0.29719 -7.9e-4,-0.247659 0.0682,-3.367279 0.0672,-3.614939"
       id="path4864"
       inkscape:connector-curvature="0" />
    <path
       inkscape:connector-curvature="0"
       id="path4902"
       d="m -162.67249,70.421323 c 0.0879,-0.0228 6.26663,-1.53456 6.35453,-1.55731 0.024,-0.006 0.0472,-0.0165 0.0719,-0.0186 0.0261,-0.002 0.0522,0.007 0.078,0.005 0.0247,-0.002 0.048,-0.0125 0.0719,-0.0186 0.064,-0.0165 0.12788,-0.0331 0.19182,-0.0496 0.024,-0.006 0.0472,-0.0178 0.0719,-0.0186 0.0522,-0.002 0.10414,0.0137 0.15627,0.0107 0.0329,-0.002 0.0639,-0.0165 0.0959,-0.0248 0.0719,-0.0186 0.14384,-0.0372 0.21578,-0.0558 0.23176,-0.0599 0.46353,-0.11996 0.69529,-0.17993 0.67931,-0.1758 1.35862,-0.35161 2.03794,-0.5274 0.24776,-0.0641 0.49551,-0.12824 0.74326,-0.19234 0.0959,-0.0248 0.19181,-0.0496 0.2877,-0.0744 0.04,-0.0104 0.0832,-0.0123 0.11988,-0.0311 0.0329,-0.0168 0.0517,-0.0541 0.0835,-0.0728 0.0213,-0.0124 0.048,-0.0125 0.0719,-0.0186 0.0959,-0.0248 0.19182,-0.0497 0.28772,-0.0744 0.23977,-0.062 0.79418,-0.15747 1.03394,-0.21952"
       style="fill:none;stroke:#cd2394;stroke-width:0.62339354;stroke-linecap:butt;stroke-linejoin:miter;stroke-miterlimit:4;stroke-dasharray:none;stroke-opacity:1"
       sodipodi:nodetypes="ccccccccccccccccccc" />
    <path
       sodipodi:nodetypes="ccccccccccccccccccc"
       style="fill:none;stroke:#cd2394;stroke-width:0.62339354;stroke-linecap:butt;stroke-linejoin:miter;stroke-miterlimit:4;stroke-dasharray:none;stroke-opacity:1"
       d="m -162.37936,73.739034 c 0.0816,0.0401 5.75161,2.923079 5.83309,2.963169 0.0223,0.0111 0.0466,0.0183 0.0667,0.0328 0.0211,0.0153 0.0346,0.0398 0.0556,0.0551 0.0201,0.0144 0.0444,0.0218 0.0667,0.0328 0.0592,0.0292 0.11852,0.0583 0.17779,0.0875 0.0223,0.0111 0.0474,0.0172 0.0667,0.0328 0.0407,0.0326 0.0701,0.0782 0.11153,0.109959 0.0262,0.02 0.0592,0.0292 0.0889,0.0438 0.0667,0.0328 0.13333,0.0657 0.20001,0.0983 0.21481,0.10566 0.42965,0.21131 0.64446,0.316991 0.62964,0.309709 1.25929,0.619399 1.88894,0.92912 0.22964,0.112949 0.45927,0.2259 0.68892,0.338849 0.0889,0.0437 0.17779,0.0875 0.26666,0.131171 0.0371,0.0182 0.071,0.0448 0.11112,0.0547 0.0359,0.009 0.0744,-0.007 0.11077,-7.4e-4 0.0243,0.005 0.0445,0.0217 0.0667,0.0328 0.0889,0.0437 0.17779,0.0875 0.26668,0.13116 0.22224,0.10931 0.70478,0.39851 0.92701,0.50781"
       id="path4908"
       inkscape:connector-curvature="0" />
    <path
       style="fill:#cce5ff;fill-opacity:1;stroke:#000000;stroke-width:0.09906279px;stroke-linecap:butt;stroke-linejoin:miter;stroke-opacity:1"
       d="m -176.21563,76.454724 c 0.43791,-1.951081 -0.82952,-3.780021 -0.52844,-5.741001 0.19445,-1.9456 -0.45043,-3.875349 -0.18353,-5.80744 0.72275,-0.766039 -0.4203,-2.73226 1.12306,-2.21214 2.469,-0.453459 4.89401,0.247021 7.3329,0.506741 1.72832,0.006 3.43716,-0.24075 5.17645,-0.164491 1.17742,0.119021 3.87998,-1.190989 3.99602,0.599531 0.11177,1.87436 -0.12621,3.763999 0.0791,5.62596 0.55145,1.876749 0.57565,3.83067 0.387,5.764329 -0.005,1.213841 0.3437,2.489131 -1.36273,2.15416 -4.36737,0.30045 -8.73978,-0.17916 -13.11154,-0.16187 -0.51217,-0.299169 -3.65636,0.511721 -2.90832,-0.563779 z"
       id="path4852"
       inkscape:connector-curvature="0" />
    <path
       sodipodi:nodetypes="cccccccccccscccccsc"
       style="fill:none;stroke:#cd2394;stroke-width:0.62339354;stroke-linecap:butt;stroke-linejoin:miter;stroke-miterlimit:4;stroke-dasharray:none;stroke-opacity:1"
       d="m -185.15451,90.658174 c 0.0908,-0.0011 0.18161,-0.003 0.2724,-0.004 0.0248,-2.64e-4 0.0498,-0.005 0.0743,-0.0011 0.0258,0.004 0.0488,0.01971 0.0746,0.02389 0.0245,0.004 0.0495,-7.94e-4 0.0743,-0.0011 0.066,-7.93e-4 0.13208,-0.0021 0.19811,-0.003 0.0248,-2.65e-4 0.05,-0.006 0.0743,-0.0011 0.0511,0.01069 0.0979,0.038 0.14929,0.0474 0.0325,0.006 0.066,-7.93e-4 0.0991,-0.0011 0.0743,-0.0011 0.14858,-0.0021 0.22287,-0.003 0.23938,-0.003 0.47876,-0.007 0.71814,-0.01021 0.70163,-0.01021 1.40325,-0.01929 2.10488,-0.029 l 0.76767,-0.01069 c 0.0991,-0.0011 0.19811,-0.003 0.29716,-0.004 0.0413,-2.65e-4 0.0837,0.008 0.12381,-0.0011 0.0359,-0.008 0.063,-0.0403 0.0984,-0.051 0.0237,-0.007 0.0495,-7.94e-4 0.0743,-0.0011 0.0991,-0.0011 0.19812,-0.003 0.29716,-0.004 0.24764,-0.003 3.36779,0.0346 3.61543,0.0312"
       id="path4868"
       inkscape:connector-curvature="0" />
    <path
       sodipodi:nodetypes="ccccccccccccccccccc"
       style="fill:none;stroke:#cd2394;stroke-width:0.62339354;stroke-linecap:butt;stroke-linejoin:miter;stroke-miterlimit:4;stroke-dasharray:none;stroke-opacity:1"
       d="m -162.11021,87.209952 c 0.0804,-0.0423 5.74673,-2.932688 5.82706,-2.975019 0.022,-0.0116 0.0422,-0.0269 0.0658,-0.0346 0.0248,-0.008 0.0525,-0.005 0.0772,-0.0126 0.0235,-0.008 0.0438,-0.0232 0.0658,-0.0346 0.0584,-0.0308 0.11686,-0.0615 0.17529,-0.0923 0.022,-0.0116 0.0418,-0.0282 0.0658,-0.0346 0.0503,-0.0138 0.10448,-0.0107 0.15453,-0.0255 0.0316,-0.009 0.0584,-0.0308 0.0877,-0.0462 0.0658,-0.0346 0.13146,-0.0693 0.19719,-0.1039 0.2118,-0.1116 0.42359,-0.223201 0.6354,-0.3348 0.62078,-0.3271 1.24157,-0.65422 1.86236,-0.98131 0.22641,-0.119311 0.4528,-0.23861 0.67921,-0.3579 0.0877,-0.0462 0.17529,-0.0923 0.26292,-0.13854 0.0366,-0.0192 0.078,-0.0311 0.10954,-0.0577 0.0282,-0.0239 0.0379,-0.0646 0.0646,-0.09 0.018,-0.017 0.0438,-0.0232 0.0658,-0.0346 0.0876,-0.0462 0.17529,-0.0924 0.26293,-0.138539 0.21911,-0.11544 0.73678,-0.33564 0.95588,-0.451091"
       id="path4904"
       inkscape:connector-curvature="0" />
    <path
       inkscape:connector-curvature="0"
       id="path4910"
       d="m -163.31747,91.074023 c 0.0885,0.0205 6.26531,1.53993 6.35376,1.560441 0.0242,0.006 0.0496,0.007 0.0724,0.0168 0.0241,0.01011 0.0427,0.0309 0.0668,0.041 0.0229,0.009 0.0483,0.01119 0.0724,0.0168 0.0643,0.0149 0.12867,0.0299 0.19301,0.0447 0.0242,0.006 0.05,0.006 0.0724,0.0168 0.0471,0.0226 0.086,0.0602 0.1336,0.0818 0.0301,0.0136 0.0644,0.0149 0.0965,0.02249 0.0724,0.0168 0.14474,0.0336 0.21712,0.0504 0.2332,0.0541 0.46642,0.108188 0.69962,0.16229 0.68355,0.15856 1.36709,0.317119 2.05065,0.475679 0.24929,0.0578 0.49857,0.115641 0.74788,0.173471 0.0965,0.02241 0.193,0.0447 0.2895,0.0672 0.0402,0.009 0.0793,0.0276 0.12063,0.028 0.037,2.65e-4 0.0708,-0.024 0.1077,-0.02601 0.0247,-7.94e-4 0.0483,0.01119 0.0724,0.0168 0.0965,0.02241 0.19301,0.0448 0.28951,0.0672 0.24125,0.056 0.77688,0.227971 1.01813,0.28393"
       style="fill:none;stroke:#cd2394;stroke-width:0.62339354;stroke-linecap:butt;stroke-linejoin:miter;stroke-miterlimit:4;stroke-dasharray:none;stroke-opacity:1"
       sodipodi:nodetypes="ccccccccccccccccccc" />
    <path
       inkscape:connector-curvature="0"
       id="path4854"
       d="m -159.96007,83.648433 c -0.43793,1.951091 0.82953,3.780031 0.52843,5.74099 -0.19444,1.945601 0.45044,3.875371 0.18355,5.807461 -0.72276,0.76603 0.42029,2.732249 -1.12307,2.212139 -2.469,0.453462 -4.89401,-0.24702 -7.33291,-0.50674 -1.72832,-0.006 -3.43716,0.240742 -5.17643,0.16447 -1.17742,-0.119009 -3.87997,1.19099 -3.99602,-0.599519 -0.11177,-1.874351 0.1262,-3.76401 -0.0791,-5.62596 -0.55144,-1.87674 -0.57565,-3.830661 -0.387,-5.764332 0.005,-1.213829 -0.3437,-2.489118 1.36274,-2.154148 4.36735,-0.30045 8.73976,0.179149 13.11153,0.16187 0.51216,0.29915 3.65636,-0.51174 2.90832,0.563769 z"
       style="fill:#cce5ff;fill-opacity:1;stroke:#000000;stroke-width:0.09906279px;stroke-linecap:butt;stroke-linejoin:miter;stroke-opacity:1" />
    <path
       inkscape:connector-curvature="0"
       id="path4978"
       d="m -211.09572,91.868013 c 3.4e-4,-0.0908 7.4e-4,-0.18162 0.001,-0.27242 7e-5,-0.02479 0.004,-0.0498 2.9e-4,-0.0743 -0.004,-0.02569 -0.0202,-0.0486 -0.0246,-0.0743 -0.004,-0.02439 2e-4,-0.0496 2.9e-4,-0.0743 2.6e-4,-0.0661 3.7e-4,-0.13208 7.4e-4,-0.19812 7e-5,-0.02479 0.005,-0.0502 2.9e-4,-0.0743 -0.0111,-0.0511 -0.0389,-0.0975 -0.0489,-0.148821 -0.006,-0.0324 2.6e-4,-0.0661 3.7e-4,-0.0991 2.9e-4,-0.0743 3.7e-4,-0.14859 7.4e-4,-0.222891 7.4e-4,-0.2394 0.002,-0.47879 0.003,-0.7182 0.003,-0.701691 0.005,-1.403372 0.008,-2.10507 l 0.003,-0.767721 c 3.7e-4,-0.0991 7.4e-4,-0.198138 0.001,-0.297198 1.4e-4,-0.0413 -0.009,-0.0836 3.7e-4,-0.123823 0.008,-0.036 0.0396,-0.0634 0.0499,-0.0989 0.007,-0.02381 2.1e-4,-0.0495 3e-4,-0.0743 3.7e-4,-0.0991 7.4e-4,-0.198131 0.001,-0.297191 7.4e-4,-0.24765 -0.0682,-3.367269 -0.0672,-3.614929"
       style="fill:none;stroke:#cd2394;stroke-width:0.62339354;stroke-linecap:butt;stroke-linejoin:miter;stroke-miterlimit:4;stroke-dasharray:none;stroke-opacity:1"
       sodipodi:nodetypes="cccccccccccscccccsc" />
    <path
       inkscape:connector-curvature="0"
       id="path4856"
       d="m -184.0916,97.083843 c -0.43792,-1.95107 0.82952,-3.780021 0.52844,-5.74098 -0.19445,-1.9456 0.45043,-3.875349 0.18354,-5.807459 -0.72276,-0.766029 0.4203,-2.732251 -1.12307,-2.212131 -2.469,-0.453459 -4.89401,0.247021 -7.33291,0.506741 -1.72831,0.006 -3.43715,-0.24074 -5.17642,-0.16449 -1.17742,0.11903 -3.87998,-1.19098 -3.99602,0.59953 -0.11177,1.87437 0.1262,3.764009 -0.0791,5.625969 -0.55145,1.87674 -0.57566,3.830651 -0.38701,5.764321 0.005,1.213839 -0.3437,2.489121 1.36274,2.154169 4.36735,0.300431 8.73977,-0.179168 13.11152,-0.16188 0.51217,-0.299159 3.65637,0.51173 2.90833,-0.56379 z"
       style="fill:#cce5ff;fill-opacity:1;stroke:#000000;stroke-width:0.09906279px;stroke-linecap:butt;stroke-linejoin:miter;stroke-opacity:1" />
    <path
       sodipodi:nodetypes="cccccccccccscccccsc"
       style="fill:none;stroke:#cd2394;stroke-width:0.62339354;stroke-linecap:butt;stroke-linejoin:miter;stroke-miterlimit:4;stroke-dasharray:none;stroke-opacity:1"
       d="m -211.09572,78.643134 c 3.4e-4,-0.0908 7.4e-4,-0.181621 0.001,-0.272431 7e-5,-0.0248 0.004,-0.0498 2.9e-4,-0.0743 -0.004,-0.0257 -0.0202,-0.0486 -0.0246,-0.0743 -0.004,-0.0244 2e-4,-0.0495 2.9e-4,-0.0743 2.6e-4,-0.0661 3.7e-4,-0.13208 7.4e-4,-0.19812 7e-5,-0.0248 0.005,-0.0502 2.9e-4,-0.0743 -0.0111,-0.0511 -0.0389,-0.0975 -0.0489,-0.148821 -0.006,-0.0324 2.6e-4,-0.0661 3.7e-4,-0.0991 2.9e-4,-0.0743 3.7e-4,-0.148579 7.4e-4,-0.22288 7.4e-4,-0.2394 0.002,-0.47881 0.003,-0.7182 0.003,-0.701689 0.005,-1.403379 0.008,-2.10507 l 0.003,-0.76773 c 3.7e-4,-0.0991 7.4e-4,-0.19812 0.001,-0.29718 1.4e-4,-0.0413 -0.009,-0.0836 3.7e-4,-0.123829 0.008,-0.036 0.0396,-0.0634 0.0499,-0.0988 0.007,-0.0238 2.1e-4,-0.0495 3e-4,-0.0743 3.7e-4,-0.099 7.4e-4,-0.19812 0.001,-0.29717 7.4e-4,-0.24766 -0.0682,-3.36728 -0.0672,-3.614939"
       id="path4980"
       inkscape:connector-curvature="0" />
    <path
       inkscape:connector-curvature="0"
       id="path5017"
       d="m -213.23995,81.855964 c -0.0788,0.0451 -5.64158,3.130179 -5.72039,3.175269 -0.0216,0.0123 -0.0412,0.0284 -0.0645,0.0369 -0.0245,0.009 -0.0523,0.006 -0.0768,0.01529 -0.0232,0.009 -0.043,0.02461 -0.0645,0.0369 -0.0573,0.0328 -0.11466,0.0657 -0.17198,0.0984 -0.0215,0.0123 -0.0408,0.0296 -0.0645,0.0369 -0.0498,0.0155 -0.10405,0.01421 -0.15356,0.0309 -0.0313,0.0105 -0.0573,0.0328 -0.086,0.0492 -0.0645,0.0369 -0.12897,0.0738 -0.19346,0.11068 -0.2078,0.11887 -0.4156,0.23775 -0.62341,0.356629 -0.60906,0.34843 -1.21814,0.696871 -1.82721,1.0453 -0.22213,0.127069 -0.44426,0.254151 -0.6664,0.38122 -0.086,0.0492 -0.17198,0.0983 -0.25796,0.147579 -0.0358,0.0204 -0.0769,0.0337 -0.10747,0.0615 -0.0273,0.0249 -0.0356,0.0658 -0.0614,0.0921 -0.0174,0.01759 -0.043,0.02461 -0.0645,0.0369 -0.086,0.0492 -0.17198,0.0983 -0.25796,0.14759 -0.21497,0.122963 -0.72471,0.360992 -0.93968,0.48396"
       style="fill:none;stroke:#cd2394;stroke-width:0.62339354;stroke-linecap:butt;stroke-linejoin:miter;stroke-miterlimit:4;stroke-dasharray:none;stroke-opacity:1"
       sodipodi:nodetypes="ccccccccccccccccccc" />
    <path
       inkscape:connector-curvature="0"
       id="path5019"
       d="m -212.90271,79.053164 c -0.0833,-0.0361 -5.88258,-2.64966 -5.96586,-2.68586 -0.0227,-0.0102 -0.0474,-0.0161 -0.0682,-0.0296 -0.0219,-0.0143 -0.0364,-0.0381 -0.0581,-0.0525 -0.0208,-0.0134 -0.0455,-0.0196 -0.0681,-0.0296 -0.0606,-0.0263 -0.12113,-0.0527 -0.1817,-0.079 -0.0227,-0.0102 -0.0481,-0.0151 -0.0681,-0.0296 -0.0422,-0.0307 -0.0736,-0.0748 -0.11658,-0.104611 -0.0271,-0.0188 -0.0606,-0.0263 -0.0909,-0.0395 -0.0681,-0.0296 -0.13627,-0.0592 -0.2044,-0.0889 -0.21955,-0.0955 -0.4391,-0.19091 -0.65864,-0.286379 -0.64351,-0.279771 -1.28702,-0.559551 -1.93051,-0.839331 -0.2347,-0.10204 -0.46938,-0.20408 -0.70408,-0.30612 -0.0908,-0.0395 -0.18169,-0.079 -0.27254,-0.1185 -0.0379,-0.0165 -0.073,-0.0415 -0.11356,-0.0493 -0.0363,-0.007 -0.074,0.011 -0.1106,0.006 -0.0245,-0.003 -0.0455,-0.0197 -0.0681,-0.0296 -0.0909,-0.0395 -0.1817,-0.079 -0.27254,-0.1185 -0.22712,-0.0988 -0.72273,-0.36494 -0.94984,-0.46369"
       style="fill:none;stroke:#cd2394;stroke-width:0.62339354;stroke-linecap:butt;stroke-linejoin:miter;stroke-miterlimit:4;stroke-dasharray:none;stroke-opacity:1"
       sodipodi:nodetypes="ccccccccccccccccccc" />
    <path
       inkscape:connector-curvature="0"
       id="path5021"
       d="m -213.12929,93.967263 c -0.0764,0.049 -5.47423,3.4144 -5.55064,3.463469 -0.0209,0.01339 -0.0397,0.0304 -0.0625,0.0401 -0.024,0.01029 -0.0519,0.009 -0.0759,0.0191 -0.0227,0.01011 -0.0417,0.0268 -0.0625,0.0401 -0.0556,0.0357 -0.11115,0.0714 -0.16672,0.107061 -0.0209,0.01339 -0.0393,0.0316 -0.0625,0.0401 -0.049,0.01799 -0.1032,0.0195 -0.15178,0.0387 -0.0307,0.01209 -0.0556,0.0356 -0.0834,0.0535 -0.0625,0.0401 -0.12504,0.0803 -0.18756,0.12041 -0.20145,0.129349 -0.4029,0.258701 -0.60436,0.38804 -0.59047,0.379101 -1.18093,0.758211 -1.77141,1.137309 -0.21534,0.138261 -0.43069,0.276521 -0.64604,0.414793 -0.0834,0.0535 -0.16672,0.10704 -0.25008,0.160567 -0.0347,0.0222 -0.0751,0.0376 -0.10419,0.067 -0.026,0.0262 -0.0322,0.0676 -0.0566,0.0952 -0.0165,0.0184 -0.0417,0.0269 -0.0625,0.0401 -0.0834,0.0536 -0.16673,0.10704 -0.25008,0.16056 -0.20841,0.1338 -0.70532,0.39756 -0.91371,0.53136"
       style="fill:none;stroke:#cd2394;stroke-width:0.62339354;stroke-linecap:butt;stroke-linejoin:miter;stroke-miterlimit:4;stroke-dasharray:none;stroke-opacity:1"
       sodipodi:nodetypes="ccccccccccccccccccc" />
    <path
       sodipodi:nodetypes="ccccccccccccccccccc"
       style="fill:none;stroke:#cd2394;stroke-width:0.62339354;stroke-linecap:butt;stroke-linejoin:miter;stroke-miterlimit:4;stroke-dasharray:none;stroke-opacity:1"
       d="m -213.1999,93.268673 c -0.0833,-0.0362 -5.88258,-2.64966 -5.96586,-2.68586 -0.0227,-0.01011 -0.0474,-0.01611 -0.0681,-0.0296 -0.0219,-0.01431 -0.0364,-0.0381 -0.0582,-0.0525 -0.0208,-0.01339 -0.0455,-0.01961 -0.0681,-0.0296 -0.0606,-0.0263 -0.12113,-0.0527 -0.1817,-0.079 -0.0227,-0.01011 -0.0481,-0.01511 -0.0681,-0.0296 -0.0422,-0.0307 -0.0736,-0.0748 -0.11658,-0.1046 -0.0271,-0.01879 -0.0606,-0.0263 -0.0909,-0.0395 -0.0681,-0.0296 -0.13626,-0.0592 -0.2044,-0.0889 -0.21955,-0.0955 -0.43909,-0.190899 -0.65864,-0.286369 -0.6435,-0.279781 -1.28701,-0.559551 -1.93051,-0.839351 -0.23469,-0.102029 -0.46938,-0.20407 -0.70407,-0.30611 -0.0908,-0.0395 -0.1817,-0.079 -0.27254,-0.118499 -0.0379,-0.01651 -0.073,-0.0415 -0.11356,-0.0493 -0.0363,-0.007 -0.074,0.01101 -0.11061,0.006 -0.0245,-0.003 -0.0455,-0.01968 -0.0681,-0.0296 -0.0909,-0.0395 -0.18169,-0.079 -0.27254,-0.118499 -0.22712,-0.0988 -0.72273,-0.364951 -0.94984,-0.463701"
       id="path5023"
       inkscape:connector-curvature="0" />
    <path
       inkscape:connector-curvature="0"
       id="path5057"
       d="m -211.25081,80.305943 c -0.0905,0.007 -6.43794,0.42227 -6.52847,0.4294 -0.0248,0.002 -0.0494,0.008 -0.0741,0.006 -0.026,-0.003 -0.05,-0.0165 -0.076,-0.0189 -0.0247,-0.002 -0.0494,0.004 -0.0741,0.006 -0.0658,0.005 -0.13168,0.0104 -0.19752,0.0156 -0.0248,0.002 -0.0495,0.009 -0.0741,0.006 -0.0517,-0.007 -0.10018,-0.0315 -0.15204,-0.0376 -0.0328,-0.004 -0.0658,0.005 -0.0988,0.008 -0.0741,0.006 -0.14813,0.0117 -0.2222,0.0175 -0.23866,0.0188 -0.47732,0.0376 -0.71598,0.0564 -0.69953,0.0551 -1.39906,0.11017 -2.09859,0.16525 -0.25512,0.02 -0.51025,0.0402 -0.76537,0.0602 -0.0988,0.008 -0.19752,0.0156 -0.29627,0.0233 -0.0411,0.003 -0.084,-0.002 -0.12344,0.0101 -0.0353,0.0109 -0.0603,0.0442 -0.0949,0.0571 -0.0232,0.008 -0.0494,0.004 -0.0741,0.006 -0.0988,0.008 -0.19752,0.0156 -0.29628,0.0233 -0.2469,0.0194 -0.80946,0.0171 -1.05635,0.0365"
       style="fill:none;stroke:#cd2394;stroke-width:0.62339354;stroke-linecap:butt;stroke-linejoin:miter;stroke-miterlimit:4;stroke-dasharray:none;stroke-opacity:1"
       sodipodi:nodetypes="ccccccccccccccccccc"
       inkscape:transform-center-x="0.57521128"
       inkscape:transform-center-y="-2.2247045" />
    <path
       inkscape:connector-curvature="0"
       id="path4870"
       d="m -215.79273,76.573584 c -0.50398,1.44212 -0.1624,2.994639 -0.2994,4.479749 0.0624,1.04438 -0.25272,2.130831 -0.0439,3.137331 1.04831,0.28085 2.32512,-0.0363 3.46169,0.170979 1.40007,-0.003 2.83506,0.53991 4.20692,0.0851 1.149,0.304891 1.60202,-0.54936 1.4527,-1.577601 0.0452,-1.92576 -0.14579,-3.852329 0.0145,-5.771599 -0.10709,-1.542831 -2.07317,-0.313961 -3.03961,-0.58678 -1.72776,0.114179 -3.46652,0.11137 -5.18893,-0.0602 -0.19208,0.002 -0.39849,0.0105 -0.56397,0.123101 z"
       style="fill:#cce5ff;fill-opacity:1;stroke:#000000;stroke-width:0.09906279px;stroke-linecap:butt;stroke-linejoin:miter;stroke-opacity:1" />
    <path
       sodipodi:nodetypes="ccccccccccccccccccc"
       style="fill:none;stroke:#cd2394;stroke-width:0.62339354;stroke-linecap:butt;stroke-linejoin:miter;stroke-miterlimit:4;stroke-dasharray:none;stroke-opacity:1"
       d="m -146.59312,79.739273 c 0.0787,-0.045 5.64159,-3.130189 5.72041,-3.175269 0.0216,-0.0123 0.0412,-0.0284 0.0645,-0.0369 0.0245,-0.009 0.0523,-0.006 0.0767,-0.0153 0.0232,-0.009 0.043,-0.0246 0.0645,-0.0368 0.0573,-0.0328 0.11464,-0.0657 0.17198,-0.0985 0.0216,-0.0123 0.0408,-0.0296 0.0645,-0.0369 0.0498,-0.0155 0.10405,-0.0142 0.15356,-0.0309 0.0313,-0.0106 0.0573,-0.0328 0.086,-0.0492 0.0645,-0.0369 0.12898,-0.0738 0.19348,-0.11066 0.2078,-0.11888 0.41561,-0.23777 0.62341,-0.35664 0.60907,-0.34844 1.21814,-0.69687 1.82722,-1.0453 0.22213,-0.12707 0.44425,-0.25415 0.66639,-0.38123 0.086,-0.0492 0.17198,-0.0983 0.25797,-0.14757 0.0358,-0.0204 0.0769,-0.0337 0.10746,-0.0614 0.0273,-0.0249 0.0357,-0.0658 0.0613,-0.0921 0.0174,-0.0176 0.0429,-0.0246 0.0645,-0.0369 0.086,-0.0492 0.17196,-0.0983 0.25795,-0.14758 0.21495,-0.12297 0.72471,-0.361 0.93967,-0.48397"
       id="path4900"
       inkscape:connector-curvature="0" />
    <path
       inkscape:transform-center-y="2.2246634"
       inkscape:transform-center-x="-0.57512658"
       sodipodi:nodetypes="ccccccccccccccccccc"
       style="fill:none;stroke:#cd2394;stroke-width:0.62339354;stroke-linecap:butt;stroke-linejoin:miter;stroke-miterlimit:4;stroke-dasharray:none;stroke-opacity:1"
       d="m -148.31716,81.296584 c 0.0905,-0.007 6.43795,-0.42229 6.52847,-0.42942 0.0247,-0.002 0.0494,-0.008 0.074,-0.006 0.0261,0.003 0.05,0.0165 0.0759,0.0189 0.0247,0.002 0.0494,-0.004 0.074,-0.006 0.0658,-0.005 0.13167,-0.0104 0.1975,-0.0156 0.0247,-0.002 0.0495,-0.009 0.074,-0.006 0.0518,0.007 0.10019,0.0315 0.15204,0.0376 0.0328,0.004 0.0658,-0.005 0.0989,-0.008 0.074,-0.006 0.14814,-0.0117 0.22222,-0.0175 0.23865,-0.0188 0.47732,-0.0376 0.71598,-0.0564 0.69954,-0.0551 1.39906,-0.11016 2.09859,-0.16524 0.25512,-0.02 0.51024,-0.0402 0.76536,-0.0602 0.0988,-0.008 0.19754,-0.0155 0.29628,-0.0233 0.0411,-0.003 0.084,0.002 0.12343,-0.0102 0.0353,-0.0109 0.0602,-0.0443 0.0949,-0.0571 0.0233,-0.008 0.0494,-0.004 0.074,-0.006 0.0988,-0.008 0.19752,-0.0155 0.29627,-0.0233 0.24691,-0.0194 0.80946,-0.0171 1.05636,-0.0365"
       id="path4914"
       inkscape:connector-curvature="0" />
    <path
       sodipodi:nodetypes="ccccccccccccccccccc"
       style="fill:none;stroke:#cd2394;stroke-width:0.62339354;stroke-linecap:butt;stroke-linejoin:miter;stroke-miterlimit:4;stroke-dasharray:none;stroke-opacity:1"
       d="m -146.93035,82.542084 c 0.0833,0.0362 5.88258,2.649651 5.96585,2.685851 0.0226,0.01021 0.0474,0.01611 0.0682,0.0296 0.0219,0.01431 0.0364,0.0381 0.0581,0.0525 0.0208,0.01339 0.0455,0.01971 0.0682,0.0297 0.0605,0.02641 0.12112,0.0527 0.1817,0.0789 0.0226,0.01021 0.0481,0.01511 0.0682,0.0296 0.0422,0.0307 0.0736,0.0748 0.11658,0.104598 0.0271,0.01881 0.0605,0.02641 0.0908,0.0395 0.0682,0.0296 0.13626,0.0592 0.2044,0.0889 0.21956,0.0955 0.4391,0.190918 0.65865,0.28638 0.6435,0.279767 1.287,0.559559 1.93051,0.839348 0.23469,0.102042 0.46937,0.20406 0.70406,0.306102 0.0908,0.0395 0.1817,0.079 0.27255,0.118509 0.0379,0.01651 0.073,0.0415 0.11355,0.0493 0.0362,0.007 0.074,-0.01101 0.11061,-0.006 0.0245,0.003 0.0455,0.01971 0.0682,0.0296 0.0908,0.0395 0.18168,0.079 0.27253,0.118489 0.22712,0.0988 0.72273,0.36495 0.94984,0.463701"
       id="path4916"
       inkscape:connector-curvature="0" />
    <path
       sodipodi:nodetypes="cccccccccccscccccsc"
       style="fill:none;stroke:#cd2394;stroke-width:0.62339354;stroke-linecap:butt;stroke-linejoin:miter;stroke-miterlimit:4;stroke-dasharray:none;stroke-opacity:1"
       d="m -149.30159,92.066144 c -2.7e-4,-0.0908 -8e-4,-0.181621 -0.001,-0.272431 -7e-5,-0.02479 -0.004,-0.0498 -2.7e-4,-0.0743 0.004,-0.0258 0.0203,-0.0486 0.0246,-0.0743 0.004,-0.0245 -2e-4,-0.0496 -2.6e-4,-0.0743 -2.5e-4,-0.0661 -2.7e-4,-0.132091 -8e-4,-0.198141 -6e-5,-0.02479 -0.006,-0.0501 -2.6e-4,-0.0743 0.0112,-0.0511 0.039,-0.0975 0.0489,-0.148809 0.006,-0.0324 -2.6e-4,-0.0661 -2.6e-4,-0.099 -2.7e-4,-0.0743 -2.7e-4,-0.148582 -8e-4,-0.222872 -7.9e-4,-0.239408 -0.002,-0.478809 -0.003,-0.718209 -0.003,-0.701691 -0.005,-1.403371 -0.008,-2.105059 l -0.003,-0.767742 c -2.6e-4,-0.099 -7.9e-4,-0.19812 -10e-4,-0.29719 -1.3e-4,-0.0413 0.009,-0.0836 -2.6e-4,-0.123831 -0.008,-0.036 -0.0397,-0.0634 -0.0499,-0.0988 -0.007,-0.02381 -2e-4,-0.0495 -2.7e-4,-0.0743 -2.6e-4,-0.099 -7.9e-4,-0.198131 -0.001,-0.297191 -7.9e-4,-0.247668 0.0682,-3.367279 0.0673,-3.614939"
       id="path4926"
       inkscape:connector-curvature="0" />
    <path
       inkscape:connector-curvature="0"
       id="path4924"
       d="m -149.30159,78.841264 c -2.7e-4,-0.0908 -8e-4,-0.181631 -0.001,-0.27243 -7e-5,-0.0248 -0.004,-0.0498 -2.7e-4,-0.0743 0.004,-0.0257 0.0203,-0.0486 0.0246,-0.0743 0.004,-0.0244 -2e-4,-0.0495 -2.6e-4,-0.0743 -2.5e-4,-0.0661 -2.7e-4,-0.132089 -8e-4,-0.198139 -6e-5,-0.0248 -0.006,-0.0501 -2.6e-4,-0.0743 0.0112,-0.0511 0.039,-0.0976 0.0489,-0.148811 0.006,-0.0324 -2.6e-4,-0.0661 -2.6e-4,-0.099 -2.7e-4,-0.0743 -2.7e-4,-0.14859 -8e-4,-0.222879 -7.9e-4,-0.23942 -0.002,-0.478801 -0.003,-0.71822 -0.003,-0.701691 -0.005,-1.403381 -0.008,-2.105051 l -0.003,-0.767739 c -2.6e-4,-0.099 -7.9e-4,-0.19813 -10e-4,-0.29719 -1.3e-4,-0.0413 0.009,-0.0836 -2.6e-4,-0.12382 -0.008,-0.0359 -0.0397,-0.0634 -0.0499,-0.0989 -0.007,-0.0238 -2e-4,-0.0496 -2.7e-4,-0.0743 -2.6e-4,-0.0991 -7.9e-4,-0.198141 -0.001,-0.29719 -7.9e-4,-0.24765 0.0682,-3.367281 0.0673,-3.614931"
       style="fill:none;stroke:#cd2394;stroke-width:0.62339354;stroke-linecap:butt;stroke-linejoin:miter;stroke-miterlimit:4;stroke-dasharray:none;stroke-opacity:1"
       sodipodi:nodetypes="cccccccccccscccccsc" />
    <path
       inkscape:connector-curvature="0"
       id="path4872"
       d="m -153.90535,77.098943 c -0.0794,0.99959 -0.1186,1.998271 -0.0909,2.997811 -0.0986,1.625049 -0.30987,3.24202 -0.46228,4.8582 0.53352,0.357841 1.50178,0.181049 2.21655,0.36581 1.83509,0.0588 3.63565,-0.40449 5.46255,-0.506111 0.90313,0.01659 2.30294,0.20638 2.90027,-0.02619 -0.16084,-1.52629 -0.1042,-3.06766 -0.15845,-4.60023 0.22248,-0.90601 0.04,-1.82948 -0.0423,-2.73438 0.2297,-0.77241 -0.15353,-1.51938 -1.0339,-1.17018 -1.50781,0.0635 -3.01558,0.0397 -4.52289,0.13339 -1.29036,0.14572 -2.57758,-0.0154 -3.86555,-0.0983 -0.75783,-0.28888 -0.63327,0.28636 -0.40301,0.78013 z"
       style="fill:#cce5ff;fill-opacity:1;stroke:#000000;stroke-width:0.09906279px;stroke-linecap:butt;stroke-linejoin:miter;stroke-opacity:1" />
    <path
       sodipodi:nodetypes="ccccccccccccccccccc"
       style="fill:none;stroke:#cd2394;stroke-width:0.62339354;stroke-linecap:butt;stroke-linejoin:miter;stroke-miterlimit:4;stroke-dasharray:none;stroke-opacity:1"
       d="m -146.70377,67.627974 c 0.0764,-0.049 5.47423,-3.41441 5.55062,-3.463471 0.0208,-0.0134 0.0397,-0.0304 0.0624,-0.0401 0.024,-0.0103 0.052,-0.009 0.0759,-0.0191 0.0226,-0.0101 0.0417,-0.0268 0.0624,-0.0401 0.0556,-0.0356 0.11115,-0.0714 0.16672,-0.107049 0.0208,-0.0134 0.0393,-0.0316 0.0624,-0.0401 0.049,-0.018 0.10318,-0.0195 0.15177,-0.0387 0.0307,-0.0121 0.0556,-0.0356 0.0834,-0.0535 0.0624,-0.0401 0.12505,-0.0803 0.18755,-0.12042 0.20147,-0.12934 0.40291,-0.25868 0.60437,-0.38802 0.59047,-0.37912 1.18093,-0.75822 1.7714,-1.13732 0.21535,-0.13826 0.43071,-0.27652 0.64606,-0.41479 0.0834,-0.0536 0.16672,-0.10704 0.25006,-0.16057 0.0347,-0.0223 0.0751,-0.0376 0.10419,-0.067 0.026,-0.0262 0.0322,-0.0675 0.0566,-0.0952 0.0165,-0.0184 0.0417,-0.0269 0.0624,-0.0401 0.0834,-0.0536 0.16673,-0.10705 0.25008,-0.16057 0.20841,-0.1338 0.70532,-0.39756 0.91372,-0.53136"
       id="path4896"
       inkscape:connector-curvature="0" />
    <path
       inkscape:connector-curvature="0"
       id="path4898"
       d="m -147.77232,67.774504 c 0.0905,-0.007 6.43794,-0.42227 6.52848,-0.4294 0.0247,-0.002 0.0494,-0.008 0.074,-0.006 0.0261,0.003 0.05,0.0165 0.0759,0.0189 0.0247,0.002 0.0495,-0.004 0.074,-0.006 0.0659,-0.005 0.13168,-0.0104 0.19753,-0.0156 0.0247,-0.002 0.0495,-0.009 0.074,-0.006 0.0517,0.007 0.1002,0.0315 0.15204,0.0376 0.0328,0.004 0.0659,-0.005 0.0988,-0.008 0.074,-0.006 0.14812,-0.0117 0.22219,-0.0175 0.23866,-0.0188 0.47731,-0.0376 0.71598,-0.0564 0.69953,-0.0551 1.39907,-0.110171 2.0986,-0.16524 0.25511,-0.02 0.51024,-0.0402 0.76536,-0.0602 0.0988,-0.008 0.19751,-0.0156 0.29626,-0.0233 0.0411,-0.003 0.084,0.002 0.12345,-0.0102 0.0353,-0.0109 0.0602,-0.0442 0.0949,-0.0571 0.0233,-0.008 0.0494,-0.004 0.074,-0.006 0.0988,-0.008 0.19752,-0.0155 0.29627,-0.0233 0.24691,-0.0194 0.80947,-0.0171 1.05636,-0.0365"
       style="fill:none;stroke:#cd2394;stroke-width:0.62339354;stroke-linecap:butt;stroke-linejoin:miter;stroke-miterlimit:4;stroke-dasharray:none;stroke-opacity:1"
       sodipodi:nodetypes="ccccccccccccccccccc"
       inkscape:transform-center-x="-0.57508063"
       inkscape:transform-center-y="2.2246678" />
    <path
       inkscape:connector-curvature="0"
       id="path4912"
       d="m -146.63317,68.326563 c 0.0833,0.0362 5.88259,2.64966 5.96586,2.68586 0.0226,0.0101 0.0474,0.0161 0.0682,0.0296 0.0219,0.0143 0.0363,0.0381 0.0581,0.0525 0.0208,0.0134 0.0455,0.0196 0.0682,0.0296 0.0605,0.0264 0.12113,0.0527 0.18171,0.079 0.0226,0.0102 0.0481,0.0151 0.0682,0.0296 0.0422,0.0307 0.0736,0.0748 0.11657,0.1046 0.0272,0.0188 0.0605,0.0263 0.0908,0.0395 0.0682,0.0296 0.13626,0.0592 0.2044,0.0889 0.21955,0.0955 0.43911,0.190909 0.65865,0.286359 0.6435,0.27979 1.28701,0.559571 1.93051,0.839351 0.23468,0.10204 0.46938,0.20408 0.70407,0.30612 0.0908,0.0395 0.1817,0.079 0.27254,0.1185 0.0379,0.0165 0.073,0.0415 0.11355,0.0493 0.0362,0.007 0.074,-0.011 0.11061,-0.006 0.0245,0.003 0.0454,0.0197 0.0682,0.0296 0.0908,0.0395 0.1817,0.079 0.27253,0.11851 0.22713,0.0988 0.72274,0.36494 0.94985,0.46369"
       style="fill:none;stroke:#cd2394;stroke-width:0.62339354;stroke-linecap:butt;stroke-linejoin:miter;stroke-miterlimit:4;stroke-dasharray:none;stroke-opacity:1"
       sodipodi:nodetypes="ccccccccccccccccccc" />
    <path
       inkscape:connector-curvature="0"
       id="path4874"
       d="m -153.45004,63.579694 c -0.19948,0.987749 -0.15452,1.98903 -0.13278,2.98103 -0.11748,0.976169 -0.14387,1.968439 -0.34066,2.927899 -0.52276,0.90349 -0.2576,2.08474 0.976,1.81194 1.15667,0.27255 2.3543,0.24631 3.53974,0.22205 1.24879,0.0736 2.40129,-0.53307 3.62231,-0.6496 0.81588,0.20599 1.65475,0.43283 1.47051,-0.72045 -8e-4,-0.823169 0.11502,-1.628689 0.25456,-2.437539 0.0754,-0.94005 0.40152,-1.88756 0.0814,-2.820661 -0.25323,-0.724799 -0.094,-1.94496 -1.22817,-1.53279 -1.06062,-0.0236 -2.09705,0.21771 -3.15802,0.167281 -1.42357,0.003 -2.84569,-0.0556 -4.27006,-0.0386 -0.21483,-0.003 -1.12304,0.165849 -0.60493,-0.12098"
       style="fill:#cce5ff;fill-opacity:1;stroke:#000000;stroke-width:0.09906279px;stroke-linecap:butt;stroke-linejoin:miter;stroke-opacity:1" />
    <path
       inkscape:connector-curvature="0"
       id="path4918"
       d="m -146.42955,94.229922 c 0.0787,-0.045 5.64158,-3.130179 5.72038,-3.175277 0.0216,-0.0123 0.0412,-0.0284 0.0645,-0.0369 0.0245,-0.009 0.0523,-0.006 0.0767,-0.01529 0.0232,-0.009 0.043,-0.02461 0.0645,-0.0369 0.0573,-0.0328 0.11467,-0.0657 0.17199,-0.0985 0.0216,-0.0123 0.0408,-0.0296 0.0645,-0.0369 0.0499,-0.0155 0.10406,-0.01421 0.15355,-0.0309 0.0313,-0.01061 0.0573,-0.0328 0.086,-0.0493 0.0644,-0.0368 0.12897,-0.0738 0.19346,-0.110678 0.20781,-0.118872 0.4156,-0.237752 0.62342,-0.356632 0.60907,-0.34844 1.21815,-0.696878 1.82723,-1.0453 0.22211,-0.127079 0.44425,-0.254148 0.66638,-0.38123 0.086,-0.0492 0.17198,-0.0983 0.25796,-0.147569 0.0358,-0.0204 0.0769,-0.0337 0.10747,-0.0614 0.0273,-0.0249 0.0357,-0.0658 0.0613,-0.0921 0.0174,-0.01759 0.043,-0.02461 0.0645,-0.0369 0.086,-0.0492 0.17199,-0.0983 0.25796,-0.147572 0.21497,-0.12297 0.7247,-0.360989 0.93967,-0.48397"
       style="fill:none;stroke:#cd2394;stroke-width:0.62339354;stroke-linecap:butt;stroke-linejoin:miter;stroke-miterlimit:4;stroke-dasharray:none;stroke-opacity:1"
       sodipodi:nodetypes="ccccccccccccccccccc" />
    <path
       inkscape:connector-curvature="0"
       id="path4920"
       d="m -148.45362,94.412183 c 0.0908,0.0021 6.44796,0.221401 6.53876,0.223322 0.0248,7.94e-4 0.05,-0.003 0.0743,0.0011 0.0257,0.005 0.0481,0.0214 0.0737,0.0265 0.0244,0.004 0.0495,0.0011 0.0743,0.0011 0.0661,0.0011 0.13205,0.003 0.19808,0.004 0.0248,7.93e-4 0.0502,-0.004 0.0742,0.0011 0.0508,0.01249 0.0965,0.0413 0.14753,0.0526 0.0322,0.007 0.0661,0.0011 0.099,0.0021 0.0742,0.0011 0.14856,0.003 0.22284,0.005 0.23935,0.005 0.47868,0.01021 0.71804,0.01519 0.70154,0.0149 1.40307,0.0298 2.10461,0.0447 0.25585,0.005 0.51171,0.01101 0.76756,0.0163 0.0991,0.0021 0.19809,0.004 0.29711,0.006 0.0413,7.93e-4 0.0834,0.01069 0.12382,0.003 0.0362,-0.007 0.0644,-0.0381 0.10008,-0.0474 0.024,-0.006 0.0496,0.0011 0.0742,0.0011 0.0991,0.0021 0.19808,0.004 0.29713,0.006 0.24759,0.005 0.80712,0.0638 1.05472,0.069"
       style="fill:none;stroke:#cd2394;stroke-width:0.62339354;stroke-linecap:butt;stroke-linejoin:miter;stroke-miterlimit:4;stroke-dasharray:none;stroke-opacity:1"
       sodipodi:nodetypes="ccccccccccccccccccc"
       inkscape:transform-center-x="-0.35049504"
       inkscape:transform-center-y="2.2703078" />
    <path
       inkscape:connector-curvature="0"
       id="path4922"
       d="m -147.36122,94.651544 c 0.0797,0.0436 5.62231,3.164678 5.70201,3.208189 0.0217,0.01201 0.0458,0.02019 0.0653,0.0356 0.0206,0.01619 0.0328,0.0412 0.0533,0.0574 0.0195,0.01521 0.0436,0.02371 0.0653,0.0356 0.0579,0.0316 0.11592,0.0633 0.17391,0.0949 0.0217,0.01198 0.0466,0.01921 0.0652,0.0356 0.0393,0.0343 0.0667,0.0812 0.10677,0.114599 0.0254,0.02109 0.0579,0.0316 0.087,0.0475 0.0653,0.0356 0.13043,0.0712 0.19564,0.106781 0.21014,0.114699 0.42027,0.22938 0.63042,0.34408 0.61594,0.336158 1.23185,0.672308 1.84779,1.008477 0.22463,0.122611 0.44927,0.245203 0.67392,0.3678 0.087,0.0475 0.1739,0.0949 0.26085,0.14239 0.0362,0.0198 0.0691,0.0479 0.10869,0.0593 0.0354,0.0102 0.0746,-0.004 0.1107,0.004 0.0241,0.005 0.0435,0.0237 0.0653,0.0355 0.087,0.0474 0.17391,0.0949 0.26086,0.14238 0.21738,0.11864 0.68723,0.42807 0.9046,0.54671"
       style="fill:none;stroke:#cd2394;stroke-width:0.62339354;stroke-linecap:butt;stroke-linejoin:miter;stroke-miterlimit:4;stroke-dasharray:none;stroke-opacity:1"
       sodipodi:nodetypes="ccccccccccccccccccc" />
    <path
       inkscape:connector-curvature="0"
       id="path4876"
       d="m -153.20486,90.618204 c 7.9e-4,1.232199 0.097,2.483749 -0.21215,3.690019 -0.0681,0.85476 0.0866,1.74076 -0.21855,2.564112 -0.14823,0.575259 0.14752,1.39977 0.86766,1.277598 1.42198,-0.0434 2.82974,-0.36263 4.25891,-0.27007 0.72767,0.0402 1.47341,0.105201 2.18571,-0.0931 0.55222,0.22742 1.55249,0.0786 1.38736,-0.719029 -0.0968,-1.535671 0.27924,-3.048122 0.40758,-4.571672 -0.26924,-0.65886 0.12318,-1.790319 -0.67303,-2.093399 -0.70898,-0.0858 -1.42128,-0.236339 -2.13764,-0.179621 -1.73423,0.21108 -3.48474,-0.0435 -5.22162,0.0823 -0.16852,0.01878 -0.3365,0.0422 -0.50411,0.0678"
       style="fill:#cce5ff;fill-opacity:1;stroke:#000000;stroke-width:0.09906279px;stroke-linecap:butt;stroke-linejoin:miter;stroke-opacity:1" />
    <path
       inkscape:transform-center-y="-2.2246633"
       inkscape:transform-center-x="0.57521132"
       sodipodi:nodetypes="ccccccccccccccccccc"
       style="fill:none;stroke:#cd2394;stroke-width:0.62339354;stroke-linecap:butt;stroke-linejoin:miter;stroke-miterlimit:4;stroke-dasharray:none;stroke-opacity:1"
       d="m -211.79566,93.828004 c -0.0905,0.007 -6.43794,0.422281 -6.52847,0.429409 -0.0247,0.0021 -0.0494,0.008 -0.0741,0.006 -0.026,-0.003 -0.05,-0.01651 -0.076,-0.01889 -0.0247,-0.0021 -0.0494,0.004 -0.0741,0.006 -0.0658,0.005 -0.13168,0.0104 -0.19752,0.01561 -0.0247,0.0021 -0.0495,0.009 -0.0741,0.006 -0.0517,-0.007 -0.10017,-0.0315 -0.15203,-0.0376 -0.0328,-0.004 -0.0658,0.005 -0.0988,0.008 -0.0741,0.006 -0.14813,0.0117 -0.2222,0.01749 -0.23867,0.01881 -0.47732,0.0376 -0.71599,0.0564 -0.69953,0.0551 -1.39906,0.110169 -2.09859,0.16524 -0.25512,0.02 -0.51024,0.0402 -0.76537,0.0602 -0.0988,0.008 -0.19752,0.01561 -0.29626,0.02331 -0.0412,0.003 -0.084,-0.0021 -0.12345,0.01021 -0.0353,0.0109 -0.0603,0.0442 -0.0949,0.0571 -0.0232,0.008 -0.0494,0.004 -0.0741,0.006 -0.0988,0.008 -0.19752,0.0155 -0.29627,0.02331 -0.2469,0.01939 -0.80947,0.01709 -1.05636,0.0365"
       id="path5059"
       inkscape:connector-curvature="0" />
    <path
       sodipodi:nodetypes="ccccccccccccccccccc"
       style="fill:none;stroke:#cd2394;stroke-width:0.62339354;stroke-linecap:butt;stroke-linejoin:miter;stroke-miterlimit:4;stroke-dasharray:none;stroke-opacity:1"
       d="m -213.4035,67.365303 c -0.0788,0.045 -5.64158,3.13018 -5.7204,3.175281 -0.0216,0.0123 -0.0413,0.0284 -0.0645,0.0369 -0.0245,0.009 -0.0523,0.006 -0.0768,0.0153 -0.0232,0.009 -0.043,0.0246 -0.0645,0.0369 -0.0573,0.0328 -0.11465,0.0657 -0.17198,0.0985 -0.0215,0.0123 -0.0408,0.0296 -0.0645,0.0369 -0.0498,0.0155 -0.10405,0.0142 -0.15355,0.0309 -0.0313,0.0106 -0.0573,0.0328 -0.086,0.0492 -0.0645,0.0369 -0.12897,0.0738 -0.19346,0.11067 -0.20781,0.11888 -0.4156,0.23776 -0.62341,0.35664 -0.60907,0.34843 -1.21814,0.69686 -1.82722,1.04529 -0.22212,0.12709 -0.44426,0.25416 -0.66639,0.38125 -0.086,0.0492 -0.17198,0.0983 -0.25796,0.14756 -0.0358,0.0205 -0.077,0.0337 -0.10748,0.0614 -0.0273,0.0249 -0.0356,0.0658 -0.0614,0.0921 -0.0174,0.0176 -0.043,0.0246 -0.0645,0.0369 -0.086,0.0492 -0.17197,0.0983 -0.25796,0.14758 -0.21497,0.12297 -0.72471,0.36099 -0.93967,0.48397"
       id="path5025"
       inkscape:connector-curvature="0" />
    <path
       inkscape:transform-center-y="-2.2702608"
       inkscape:transform-center-x="0.35058373"
       sodipodi:nodetypes="ccccccccccccccccccc"
       style="fill:none;stroke:#cd2394;stroke-width:0.62339354;stroke-linecap:butt;stroke-linejoin:miter;stroke-miterlimit:4;stroke-dasharray:none;stroke-opacity:1"
       d="m -211.11435,67.190333 c -0.0908,-0.002 -6.44797,-0.221409 -6.53876,-0.22333 -0.0248,-7.67e-4 -0.0499,0.003 -0.0743,-0.001 -0.0256,-0.005 -0.0481,-0.0213 -0.0737,-0.0264 -0.0244,-0.004 -0.0496,-0.001 -0.0743,-0.001 -0.066,-0.001 -0.13206,-0.003 -0.19809,-0.004 -0.0248,-7.4e-4 -0.0502,0.004 -0.0743,-10e-4 -0.0507,-0.0125 -0.0965,-0.0413 -0.14753,-0.0526 -0.0322,-0.007 -0.066,-0.001 -0.0991,-0.002 -0.0743,-10e-4 -0.14856,-0.003 -0.22284,-0.005 -0.23935,-0.005 -0.47868,-0.0102 -0.71804,-0.0153 -0.70153,-0.0149 -1.40307,-0.0298 -2.10461,-0.0446 -0.25585,-0.005 -0.5117,-0.011 -0.76756,-0.0163 -0.099,-0.002 -0.19809,-0.004 -0.29712,-0.006 -0.0413,-7.4e-4 -0.0833,-0.0107 -0.1238,-0.003 -0.0362,0.007 -0.0644,0.0381 -0.1001,0.0474 -0.024,0.006 -0.0496,-10e-4 -0.0743,-10e-4 -0.099,-0.002 -0.19808,-0.004 -0.29712,-0.006 -0.2476,-0.005 -0.80713,-0.0638 -1.05473,-0.069"
       id="path5061"
       inkscape:connector-curvature="0" />
    <path
       style="fill:#cce5ff;fill-opacity:1;stroke:#000000;stroke-width:0.09906279px;stroke-linecap:butt;stroke-linejoin:miter;stroke-opacity:1"
       d="m -216.28307,90.793324 c -0.0795,0.999601 -0.11861,1.99827 -0.0909,2.997811 -0.0987,1.625049 -0.30987,3.242019 -0.46227,4.858207 0.53352,0.357831 1.50177,0.181052 2.21655,0.365792 1.83507,0.0587 3.63564,-0.404471 5.46254,-0.506111 0.90314,0.01659 2.30294,0.206391 2.90028,-0.02609 -0.16085,-1.526291 -0.1042,-3.067671 -0.15844,-4.600241 0.22248,-0.90601 0.04,-1.82947 -0.0424,-2.734379 0.22968,-0.772401 -0.15353,-1.51938 -1.03391,-1.170181 -1.50781,0.0636 -3.01557,0.0397 -4.52289,0.133401 -1.29035,0.145708 -2.57758,-0.0154 -3.86556,-0.0982 -0.75782,-0.288881 -0.63326,0.286369 -0.40299,0.780129 z"
       id="path4878"
       inkscape:connector-curvature="0" />
    <path
       sodipodi:nodetypes="ccccccccccccccccccc"
       style="fill:none;stroke:#cd2394;stroke-width:0.62339354;stroke-linecap:butt;stroke-linejoin:miter;stroke-miterlimit:4;stroke-dasharray:none;stroke-opacity:1"
       d="m -212.47185,66.943684 c -0.0797,-0.0434 -5.6223,-3.164681 -5.70201,-3.20818 -0.0217,-0.012 -0.0457,-0.0202 -0.0652,-0.0356 -0.0205,-0.0162 -0.0328,-0.0412 -0.0532,-0.0574 -0.0196,-0.0152 -0.0435,-0.0237 -0.0652,-0.0356 -0.058,-0.0316 -0.11594,-0.0633 -0.17391,-0.0949 -0.0217,-0.012 -0.0466,-0.0192 -0.0652,-0.0356 -0.0393,-0.0343 -0.0667,-0.0812 -0.10677,-0.11461 -0.0253,-0.0212 -0.058,-0.0316 -0.087,-0.0475 -0.0652,-0.0356 -0.13042,-0.0712 -0.19564,-0.10679 -0.21014,-0.11469 -0.42029,-0.22937 -0.63042,-0.34407 -0.61593,-0.33616 -1.23187,-0.67232 -1.84779,-1.00848 -0.22464,-0.12262 -0.44927,-0.245211 -0.67391,-0.367801 -0.087,-0.0475 -0.17391,-0.0949 -0.26086,-0.1424 -0.0362,-0.0198 -0.069,-0.0479 -0.10869,-0.0593 -0.0355,-0.0103 -0.0747,0.004 -0.11069,-0.004 -0.0241,-0.005 -0.0435,-0.0237 -0.0652,-0.0355 -0.087,-0.0474 -0.17391,-0.0949 -0.26087,-0.142379 -0.21738,-0.11865 -0.68722,-0.428061 -0.90461,-0.546711"
       id="path5027"
       inkscape:connector-curvature="0" />
    <path
       style="fill:#cce5ff;fill-opacity:1;stroke:#000000;stroke-width:0.09906279px;stroke-linecap:butt;stroke-linejoin:miter;stroke-opacity:1"
       d="m -215.3024,62.809163 c 7.5e-4,1.23219 0.097,2.483751 -0.21214,3.690021 -0.0681,0.85475 0.0866,1.740749 -0.21855,2.564109 -0.14823,0.575251 0.14752,1.39978 0.86767,1.277611 1.42197,-0.0434 2.82973,-0.362631 4.25891,-0.270091 0.72767,0.0402 1.4734,0.10521 2.18569,-0.0931 0.55223,0.22742 1.55249,0.0786 1.38736,-0.71901 -0.0968,-1.5357 0.27926,-3.048139 0.40758,-4.571679 -0.26924,-0.65887 0.12319,-1.790331 -0.67303,-2.093411 -0.70897,-0.0858 -1.42127,-0.236339 -2.13764,-0.17962 -1.73422,0.21108 -3.48473,-0.0435 -5.22162,0.0823 -0.16852,0.0188 -0.33649,0.0422 -0.50411,0.0678"
       id="path4880"
       inkscape:connector-curvature="0" />
    <path
       style="fill:#cce5ff;fill-opacity:1;stroke:#000000;stroke-width:0.09906279px;stroke-linecap:butt;stroke-linejoin:miter;stroke-opacity:1"
       d="m -137.45449,78.956423 c -0.23621,0.492981 0.0131,1.04081 -0.0869,1.555761 -0.0258,0.52966 -0.0233,1.062439 0.0437,1.58917 -0.15397,0.25283 0.0955,0.58718 0.38048,0.454589 0.44647,-0.0287 0.89442,0.001 1.34155,-0.0114 0.67035,3.7e-4 1.34523,-0.0273 2.00079,-0.17775 0.27295,-0.044 0.55226,-0.0594 0.82715,-0.0241 0.29883,-0.0564 0.18691,-0.43524 0.16912,-0.64776 0.0123,-0.27605 0.047,-0.55104 0.0638,-0.82724 0.0527,-0.46715 0.10742,-0.94445 0.003,-1.40865 -0.0278,-0.30816 0.0384,-0.65225 -0.15183,-0.92169 -0.25724,-0.2183 -0.62188,-0.13575 -0.93181,-0.16966 -0.5164,0.0137 -1.02712,0.11904 -1.54513,0.1 -0.54546,0.0154 -1.09213,0.0331 -1.63706,0.0144 -0.19464,0.0115 -0.60769,-0.0999 -0.57278,0.22017 -0.0209,0.11604 0.0887,0.3886 0.0523,0.12566 -0.002,-0.0148 -0.004,-0.0296 -0.006,-0.0443"
       id="path4882"
       inkscape:connector-curvature="0" />
    <path
       inkscape:connector-curvature="0"
       id="path4884"
       d="m -137.31438,71.881573 c -0.23623,0.492991 0.0131,1.04081 -0.087,1.55576 -0.0257,0.529671 -0.0233,1.06245 0.0438,1.589181 -0.15399,0.252819 0.0955,0.587169 0.38047,0.45457 0.44645,-0.0285 0.89441,0.001 1.34155,-0.0114 0.67035,3.7e-4 1.34522,-0.0273 2.00078,-0.17774 0.27295,-0.0439 0.55226,-0.0594 0.82714,-0.0241 0.29885,-0.0564 0.18693,-0.43525 0.16913,-0.64777 0.0123,-0.27605 0.047,-0.55104 0.0639,-0.82724 0.0527,-0.46714 0.10741,-0.94444 0.003,-1.40865 -0.0278,-0.30816 0.0384,-0.65225 -0.15184,-0.92168 -0.25723,-0.21831 -0.62187,-0.13576 -0.9318,-0.16967 -0.51641,0.0137 -1.02712,0.11903 -1.54514,0.1 -0.54546,0.0154 -1.09213,0.0331 -1.63705,0.0144 -0.19466,0.0115 -0.60769,-0.1 -0.57278,0.22016 -0.0211,0.11604 0.0887,0.3886 0.0523,0.12566 -0.002,-0.0148 -0.004,-0.0296 -0.006,-0.0443"
       style="fill:#cce5ff;fill-opacity:1;stroke:#000000;stroke-width:0.09906279px;stroke-linecap:butt;stroke-linejoin:miter;stroke-opacity:1" />
    <path
       style="fill:#cce5ff;fill-opacity:1;stroke:#000000;stroke-width:0.09906279px;stroke-linecap:butt;stroke-linejoin:miter;stroke-opacity:1"
       d="m -137.31438,65.227013 c -0.23623,0.49299 0.0131,1.04081 -0.087,1.555771 -0.0257,0.52965 -0.0233,1.06244 0.0438,1.589169 -0.15399,0.252831 0.0955,0.58718 0.38047,0.45459 0.44645,-0.0287 0.89441,0.001 1.34155,-0.0114 0.67035,3.71e-4 1.34522,-0.0273 2.00078,-0.17774 0.27295,-0.0439 0.55226,-0.0595 0.82714,-0.0241 0.29885,-0.0564 0.18693,-0.43524 0.16913,-0.64777 0.0123,-0.276059 0.047,-0.55103 0.0639,-0.827239 0.0527,-0.467141 0.10741,-0.94444 0.003,-1.408641 -0.0278,-0.30816 0.0384,-0.65226 -0.15184,-0.9217 -0.25723,-0.2183 -0.62187,-0.13575 -0.9318,-0.16966 -0.51641,0.0137 -1.02712,0.11905 -1.54514,0.1 -0.54546,0.0154 -1.09213,0.0331 -1.63705,0.0144 -0.19466,0.0115 -0.60769,-0.1 -0.57278,0.22016 -0.0211,0.11603 0.0887,0.38859 0.0523,0.12567 -0.002,-0.0148 -0.004,-0.0297 -0.006,-0.0445"
       id="path4886"
       inkscape:connector-curvature="0" />
    <path
       inkscape:connector-curvature="0"
       id="path4888"
       d="m -137.34941,58.922704 c -0.23621,0.492989 0.0131,1.040799 -0.087,1.555759 -0.0257,0.52966 -0.0233,1.06245 0.0437,1.58917 -0.15395,0.25283 0.0955,0.58718 0.38049,0.454581 0.44646,-0.0287 0.89442,0.001 1.34155,-0.0114 0.67034,3.7e-4 1.34522,-0.0272 2.00078,-0.17774 0.27296,-0.0439 0.55225,-0.0594 0.82714,-0.0241 0.29884,-0.0564 0.18693,-0.43525 0.16915,-0.64777 0.0123,-0.27606 0.047,-0.55104 0.0637,-0.82724 0.0527,-0.46714 0.10741,-0.94444 0.003,-1.40865 -0.0278,-0.30816 0.0384,-0.65225 -0.15184,-0.92168 -0.25723,-0.21831 -0.62186,-0.13576 -0.9318,-0.16967 -0.5164,0.0137 -1.02712,0.11903 -1.54514,0.1 -0.54544,0.0154 -1.09211,0.0331 -1.63705,0.0144 -0.19463,0.0115 -0.60767,-0.1 -0.57277,0.22016 -0.0209,0.11603 0.0887,0.3886 0.0523,0.12566 -0.002,-0.0148 -0.004,-0.0296 -0.006,-0.0444"
       style="fill:#cce5ff;fill-opacity:1;stroke:#000000;stroke-width:0.09906279px;stroke-linecap:butt;stroke-linejoin:miter;stroke-opacity:1" />
    <path
       style="fill:#cce5ff;fill-opacity:1;stroke:#000000;stroke-width:0.09906279px;stroke-linecap:butt;stroke-linejoin:miter;stroke-opacity:1"
       d="m -137.27936,86.381502 c -0.23622,0.492983 0.0131,1.040821 -0.087,1.555761 -0.0257,0.529672 -0.0233,1.06245 0.0437,1.58918 -0.15396,0.25282 0.0955,0.587182 0.38048,0.454581 0.44647,-0.0286 0.89443,0.0011 1.34156,-0.0114 0.67034,2.65e-4 1.34522,-0.0272 2.00078,-0.177739 0.27296,-0.044 0.55225,-0.0595 0.82716,-0.0241 0.29882,-0.0564 0.18691,-0.43525 0.16912,-0.647779 0.0123,-0.27604 0.047,-0.55104 0.0637,-0.82722 0.0527,-0.467151 0.1074,-0.944449 0.003,-1.408649 -0.0277,-0.308171 0.0384,-0.652262 -0.15184,-0.9217 -0.25723,-0.2183 -0.62186,-0.13575 -0.9318,-0.169662 -0.51639,0.01371 -1.02712,0.119052 -1.54514,0.0999 -0.54545,0.0154 -1.09211,0.0331 -1.63705,0.01439 -0.19464,0.01151 -0.60768,-0.1 -0.57278,0.220181 -0.0209,0.116041 0.0887,0.388591 0.0523,0.125651 -0.002,-0.01479 -0.004,-0.0296 -0.006,-0.0444"
       id="path4890"
       inkscape:connector-curvature="0" />
    <path
       inkscape:connector-curvature="0"
       id="path4892"
       d="m -137.41946,93.211184 c -0.23621,0.49299 0.0131,1.04081 -0.087,1.555768 -0.0257,0.529662 -0.0233,1.062451 0.0437,1.589162 -0.15396,0.252839 0.0955,0.587179 0.38047,0.454589 0.44647,-0.0286 0.89443,0.0011 1.34156,-0.0114 0.67034,2.65e-4 1.34522,-0.0272 2.00078,-0.177742 0.27296,-0.044 0.55226,-0.0594 0.82714,-0.0241 0.29885,-0.0564 0.18693,-0.43525 0.16915,-0.647772 0.0123,-0.27605 0.0469,-0.551029 0.0638,-0.827238 0.0527,-0.46714 0.10742,-0.944441 0.003,-1.40865 -0.0278,-0.30816 0.0384,-0.652261 -0.15183,-0.921702 -0.25724,-0.218289 -0.62186,-0.135729 -0.93181,-0.169648 -0.5164,0.01371 -1.02712,0.119038 -1.54513,0.0999 -0.54545,0.0154 -1.09213,0.0331 -1.63705,0.01439 -0.19465,0.01151 -0.60769,-0.1 -0.57279,0.220149 -0.0209,0.116041 0.0887,0.388601 0.0523,0.125669 -0.002,-0.01479 -0.004,-0.0296 -0.006,-0.0445"
       style="fill:#cce5ff;fill-opacity:1;stroke:#000000;stroke-width:0.09906279px;stroke-linecap:butt;stroke-linejoin:miter;stroke-opacity:1" />
    <path
       style="fill:#cce5ff;fill-opacity:1;stroke:#000000;stroke-width:0.09906279px;stroke-linecap:butt;stroke-linejoin:miter;stroke-opacity:1"
       d="m -137.4895,99.830715 c -0.23623,0.492995 0.0131,1.040815 -0.087,1.555765 -0.0257,0.52967 -0.0233,1.06245 0.0437,1.58917 -0.15397,0.25283 0.0955,0.58719 0.38048,0.45458 0.44646,-0.0287 0.89442,0.001 1.34155,-0.0114 0.67036,2.7e-4 1.34523,-0.0272 2.00078,-0.17775 0.27296,-0.044 0.55226,-0.0594 0.82714,-0.0241 0.29884,-0.0564 0.18693,-0.43525 0.16915,-0.64777 0.0123,-0.27606 0.047,-0.55104 0.0639,-0.82725 0.0527,-0.46714 0.1074,-0.94443 0.003,-1.40865 -0.0278,-0.30815 0.0384,-0.652236 -0.15184,-0.921677 -0.25724,-0.218311 -0.62187,-0.13575 -0.93181,-0.16967 -0.51641,0.01371 -1.02711,0.119039 -1.54513,0.1 -0.54545,0.0154 -1.09213,0.0331 -1.63706,0.01439 -0.19464,0.01151 -0.60767,-0.100002 -0.57278,0.220149 -0.0209,0.116041 0.0887,0.388609 0.0523,0.125669 -0.002,-0.01479 -0.004,-0.0296 -0.006,-0.0443"
       id="path4894"
       inkscape:connector-curvature="0" />
    <path
       style="fill:#ffffff;fill-opacity:1;stroke:#000000;stroke-width:0.09906279px;stroke-linecap:butt;stroke-linejoin:miter;stroke-opacity:1"
       d="m -197.59311,71.913304 c -0.1024,-0.69092 -0.15032,-1.38962 -0.21845,-2.084761 -0.0332,-0.5509 -0.0363,-1.10311 -0.0292,-1.65481 0.71837,-0.13333 1.46143,-0.0438 2.18215,-0.183949 0.79255,-0.16124 1.57968,0.106009 2.37074,0.149489 0.40701,0.39869 0.1188,1.06157 0.14818,1.56587 -0.12995,0.720021 -0.0548,1.44761 -0.054,2.17127 -0.18445,0.53524 -0.95171,-0.0167 -1.38412,0.16037 -0.79291,-0.0409 -1.58956,0.0454 -2.37933,-0.0402 -0.21189,0.0145 -0.45526,0.0622 -0.63595,-0.0833 z"
       id="path4942"
       inkscape:connector-curvature="0" />
    <path
       style="fill:#ffffff;fill-opacity:1;stroke:#000000;stroke-width:0.09906279px;stroke-linecap:butt;stroke-linejoin:miter;stroke-opacity:1"
       d="m -190.81883,68.166403 c -0.11352,0.70846 -0.14078,1.42674 -0.20038,2.14044 -0.0782,0.43659 -0.31229,0.88239 -0.15679,1.329411 -0.0674,0.353629 0.37327,0.48119 0.64724,0.422579 0.44946,-0.004 0.899,0.0576 1.34752,-0.001 0.76417,-0.0677 1.53042,-0.21449 2.29931,-0.14572 0.21528,0.0251 0.46411,0.10394 0.6607,-0.019 0.15238,-0.2115 0.0468,-0.50298 0.17417,-0.73227 0.147,-0.62538 0.15364,-1.28218 0.0196,-1.91031 -0.0456,-0.41095 0.0273,-0.82236 0.10457,-1.22484 -0.14343,-0.31975 -0.55429,-0.24625 -0.83694,-0.2284 -0.36369,-0.019 -0.72404,-0.0835 -1.08899,-0.094 -0.61259,-0.0436 -1.22789,-0.0547 -1.84089,-0.0182 -0.35615,-0.0158 -0.75523,-0.12704 -1.07394,0.0877 -0.0842,0.0589 -0.0469,0.54674 0.0438,0.2201"
       id="path4944"
       inkscape:connector-curvature="0" />
    <path
       inkscape:connector-curvature="0"
       id="path4946"
       d="m -161.95079,74.885173 c 0.1024,-0.690899 0.15033,-1.3896 0.21845,-2.08476 0.0332,-0.550889 0.0363,-1.103099 0.0292,-1.65479 -0.71837,-0.133329 -1.46142,-0.0438 -2.18214,-0.18397 -0.79255,-0.16122 -1.57969,0.106031 -2.37075,0.14951 -0.40702,0.398681 -0.1188,1.061561 -0.14817,1.56587 0.12993,0.72 0.0548,1.44761 0.054,2.17127 0.18445,0.535231 0.95172,-0.0167 1.38411,0.16036 0.79292,-0.0409 1.58958,0.0454 2.37935,-0.0402 0.21189,0.0145 0.45525,0.0622 0.63595,-0.0833 z"
       style="fill:#ffffff;fill-opacity:1;stroke:#000000;stroke-width:0.09906279px;stroke-linecap:butt;stroke-linejoin:miter;stroke-opacity:1" />
    <path
       inkscape:connector-curvature="0"
       id="path4948"
       d="m -168.72508,71.138283 c 0.11353,0.70846 0.14078,1.42675 0.20039,2.14044 0.0782,0.4366 0.31228,0.8824 0.15679,1.32941 0.0674,0.35364 -0.37328,0.481201 -0.64724,0.422581 -0.44947,-0.004 -0.899,0.0576 -1.34752,-0.001 -0.76418,-0.0677 -1.53043,-0.2145 -2.29932,-0.14572 -0.21528,0.0251 -0.4641,0.10394 -0.6607,-0.0189 -0.15238,-0.2115 -0.0469,-0.50297 -0.17417,-0.73227 -0.147,-0.62537 -0.15364,-1.28218 -0.0196,-1.91031 0.0456,-0.41094 -0.0273,-0.82235 -0.10457,-1.22483 0.14343,-0.31976 0.5543,-0.24626 0.83694,-0.22841 0.36369,-0.019 0.72405,-0.0835 1.08899,-0.094 0.61259,-0.0436 1.2279,-0.0547 1.8409,-0.0182 0.35614,-0.0158 0.75522,-0.12704 1.07394,0.0877 0.0842,0.0589 0.0468,0.54674 -0.0438,0.2201"
       style="fill:#ffffff;fill-opacity:1;stroke:#000000;stroke-width:0.09906279px;stroke-linecap:butt;stroke-linejoin:miter;stroke-opacity:1" />
    <path
       style="fill:#ffffff;fill-opacity:1;stroke:#000000;stroke-width:0.09906279px;stroke-linecap:butt;stroke-linejoin:miter;stroke-opacity:1"
       d="m -186.91461,91.272913 c 0.10239,0.690922 0.15032,1.38961 0.21844,2.08476 0.0332,0.5509 0.0363,1.103112 0.0292,1.6548 -0.71837,0.133342 -1.46143,0.0438 -2.18215,0.18397 -0.79255,0.161231 -1.57968,-0.106019 -2.37074,-0.149501 -0.40702,-0.39869 -0.1188,-1.061579 -0.14818,-1.565878 0.12995,-0.72 0.0548,-1.447601 0.054,-2.171271 0.18446,-0.535239 0.95172,0.01669 1.38412,-0.160369 0.79291,0.0409 1.58957,-0.0454 2.37934,0.0402 0.21188,-0.0145 0.45526,-0.0622 0.63594,0.0833 z"
       id="path4950"
       inkscape:connector-curvature="0" />
    <path
       style="fill:#ffffff;fill-opacity:1;stroke:#000000;stroke-width:0.09906279px;stroke-linecap:butt;stroke-linejoin:miter;stroke-opacity:1"
       d="m -193.6889,95.019815 c 0.11352,-0.708462 0.14078,-1.426742 0.20038,-2.140442 0.0782,-0.436589 0.31229,-0.882399 0.1568,-1.329421 0.0674,-0.353628 -0.37328,-0.481189 -0.64725,-0.422558 -0.44946,0.004 -0.899,-0.0576 -1.34751,0.0011 -0.76418,0.0677 -1.53043,0.2145 -2.29932,0.14573 -0.21528,-0.02511 -0.46411,-0.103942 -0.6607,0.019 -0.15238,0.21151 -0.0469,0.502981 -0.17417,0.732268 -0.14699,0.625391 -0.15363,1.282192 -0.0196,1.910321 0.0456,0.41094 -0.0273,0.82236 -0.10456,1.224841 0.14342,0.319749 0.55429,0.24624 0.83693,0.228399 0.36369,0.019 0.72405,0.0835 1.08899,0.094 0.61259,0.0437 1.2279,0.0547 1.84089,0.0182 0.35616,0.0158 0.75523,0.127031 1.07395,-0.0877 0.0842,-0.0589 0.0468,-0.546762 -0.0438,-0.22011"
       id="path4952"
       inkscape:connector-curvature="0" />
    <path
       inkscape:connector-curvature="0"
       id="path4954"
       d="m -174.36289,88.301044 c -0.1024,0.690901 -0.15032,1.389589 -0.21845,2.08476 -0.0332,0.550889 -0.0363,1.103099 -0.0292,1.654789 0.71837,0.133332 1.46143,0.0438 2.18215,0.18396 0.79255,0.161231 1.57968,-0.106008 2.37074,-0.14949 0.40702,-0.39869 0.1188,-1.06158 0.14818,-1.565889 -0.12994,-0.72 -0.0548,-1.447601 -0.054,-2.171261 -0.18445,-0.535238 -0.95171,0.0167 -1.38412,-0.160369 -0.7929,0.0409 -1.58956,-0.0454 -2.37933,0.0402 -0.21189,-0.0145 -0.45526,-0.0623 -0.63595,0.0833 z"
       style="fill:#ffffff;fill-opacity:1;stroke:#000000;stroke-width:0.09906279px;stroke-linecap:butt;stroke-linejoin:miter;stroke-opacity:1" />
    <path
       inkscape:connector-curvature="0"
       id="path4956"
       d="m -167.5886,92.047933 c -0.11353,-0.708459 -0.14078,-1.42675 -0.20039,-2.14045 -0.0782,-0.436589 -0.31228,-0.882388 -0.15679,-1.32941 -0.0674,-0.353639 0.37328,-0.4812 0.64724,-0.422569 0.44946,0.004 0.899,-0.0576 1.34752,0.0011 0.76417,0.0677 1.53043,0.214479 2.29932,0.145708 0.21528,-0.02511 0.46412,-0.103938 0.6607,0.019 0.15239,0.2115 0.0469,0.50298 0.17417,0.732271 0.147,0.62538 0.15364,1.2822 0.0195,1.910318 -0.0456,0.41094 0.0273,0.822352 0.10457,1.224841 -0.14343,0.319741 -0.55429,0.24624 -0.83694,0.228391 -0.36369,0.019 -0.72404,0.0835 -1.08899,0.094 -0.61259,0.0436 -1.22789,0.0547 -1.8409,0.0182 -0.35615,0.0158 -0.75523,0.12704 -1.07394,-0.0877 -0.0842,-0.059 -0.0468,-0.546772 0.0438,-0.22012"
       style="fill:#ffffff;fill-opacity:1;stroke:#000000;stroke-width:0.09906279px;stroke-linecap:butt;stroke-linejoin:miter;stroke-opacity:1" />
    <path
       style="fill:#ffffff;fill-opacity:1;stroke:#000000;stroke-width:0.09906279px;stroke-linecap:butt;stroke-linejoin:miter;stroke-opacity:1"
       d="m -151.29353,66.313384 c -0.0222,0.58762 -0.26423,1.159769 -0.15636,1.753339 -0.0319,0.41793 -0.0497,0.83706 -0.0488,1.25755 0.0509,0.32092 0.68675,0.134561 0.96854,0.29757 0.74241,0.16897 1.5036,0.0356 2.24931,-0.0299 0.49823,-0.170211 1.22464,0.0502 1.57665,-0.340091 0.008,-0.536309 0.0405,-1.08457 2.6e-4,-1.623929 -0.0825,-0.440721 -0.11353,-0.89145 -0.0102,-1.331231 0.14087,-0.430259 -0.13104,-0.695389 -0.5588,-0.653589 -0.54782,-0.10203 -1.10184,-0.0491 -1.65055,0.009 -0.66954,0.0229 -1.34,0.126019 -2.01027,0.0801 -0.45,-0.256281 -0.47602,0.295649 -0.36028,0.581449 z"
       id="path4958"
       inkscape:connector-curvature="0" />
    <path
       inkscape:connector-curvature="0"
       id="path4960"
       d="m -151.85829,78.639643 c -0.12975,0.612951 -0.17692,1.25365 -0.0474,1.87081 0.001,0.600461 -0.085,1.202691 -0.009,1.801721 -0.15692,0.28757 -0.0367,0.74797 0.32148,0.805359 0.37527,0.0122 0.75283,-0.0596 1.12553,0.009 1.1422,0.0199 2.25433,-0.34927 3.39827,-0.29587 0.32054,0.024 0.68605,-0.20718 0.57402,-0.56555 0.008,-0.44112 0.0289,-0.88317 -0.0356,-1.321881 -0.0419,-0.399579 -0.0905,-0.801649 -0.0616,-1.203939 -0.13406,-0.47091 0.11636,-1.00693 -0.17451,-1.44051 -0.26305,-0.2235 -0.64138,-0.10988 -0.95458,-0.1894 -0.58567,-0.0516 -1.16792,0.0437 -1.74457,0.13087 -0.62193,0.0682 -1.24949,0.0935 -1.86555,0.20829 -0.17113,-0.0392 -0.70152,-0.17151 -0.52596,0.19113 z"
       style="fill:#ffffff;fill-opacity:1;stroke:#000000;stroke-width:0.09355383px;stroke-linecap:butt;stroke-linejoin:miter;stroke-opacity:1" />
    <path
       style="fill:#ffffff;fill-opacity:1;stroke:#000000;stroke-width:0.09906279px;stroke-linecap:butt;stroke-linejoin:miter;stroke-opacity:1"
       d="m -151.41546,92.554874 c -0.23622,0.492999 0.0131,1.04081 -0.0869,1.555769 -0.0257,0.529661 -0.0233,1.06245 0.0438,1.589161 -0.15398,0.252828 0.0955,0.58718 0.38047,0.4546 0.44647,-0.0286 0.89442,0.0011 1.34155,-0.0114 0.67035,2.65e-4 1.34524,-0.0272 2.00079,-0.177739 0.27294,-0.0439 0.55224,-0.0595 0.82715,-0.0241 0.29882,-0.0564 0.18691,-0.435258 0.16913,-0.647779 0.0123,-0.276058 0.047,-0.551029 0.0637,-0.827238 0.0527,-0.467141 0.10742,-0.94443 0.003,-1.408653 -0.0278,-0.30816 0.0384,-0.652248 -0.15183,-0.921689 -0.25725,-0.2183 -0.62187,-0.135739 -0.93182,-0.169659 -0.51638,0.01371 -1.02711,0.119039 -1.54512,0.1 -0.54545,0.0154 -1.09213,0.0331 -1.63707,0.01439 -0.19464,0.01151 -0.60768,-0.1 -0.57278,0.22016 -0.0209,0.11603 0.0887,0.388591 0.0523,0.125672 -0.002,-0.01479 -0.004,-0.0296 -0.006,-0.0445"
       id="path4962"
       inkscape:connector-curvature="0" />
    <path
       inkscape:connector-curvature="0"
       id="path5029"
       d="m -222.37858,82.638814 c 0.23621,-0.492981 -0.0131,-1.04081 0.087,-1.55575 0.0257,-0.529671 0.0233,-1.06246 -0.0438,-1.589191 0.15397,-0.25282 -0.0955,-0.587169 -0.38048,-0.454579 -0.44647,0.0287 -0.89442,-0.001 -1.34155,0.0114 -0.67035,-3.71e-4 -1.34523,0.0272 -2.00078,0.17775 -0.27296,0.0439 -0.55227,0.0594 -0.82715,0.0241 -0.29884,0.0564 -0.18692,0.435241 -0.16914,0.647771 -0.0123,0.276039 -0.0469,0.551039 -0.0638,0.827239 -0.0527,0.467131 -0.10741,0.94444 -0.003,1.408641 0.0277,0.308159 -0.0384,0.65225 0.15184,0.921689 0.25724,0.2183 0.62187,0.13575 0.9318,0.16966 0.51641,-0.0137 1.02712,-0.11904 1.54514,-0.0999 0.54545,-0.0154 1.09213,-0.0331 1.63705,-0.0144 0.19465,-0.0115 0.60769,0.1 0.57279,-0.22017 0.021,-0.11604 -0.0887,-0.38859 -0.0522,-0.12566 0.002,0.0148 0.004,0.0296 0.006,0.0444"
       style="fill:#cce5ff;fill-opacity:1;stroke:#000000;stroke-width:0.09906279px;stroke-linecap:butt;stroke-linejoin:miter;stroke-opacity:1" />
    <path
       style="fill:#ffffff;fill-opacity:1;stroke:#000000;stroke-width:0.09906279px;stroke-linecap:butt;stroke-linejoin:miter;stroke-opacity:1"
       d="m -213.718,64.796813 c -0.23621,0.492991 0.0131,1.040811 -0.0869,1.555771 -0.0257,0.52966 -0.0233,1.062439 0.0438,1.58917 -0.15397,0.252829 0.0955,0.587179 0.38048,0.45458 0.44647,-0.0287 0.89442,0.001 1.34155,-0.0114 0.67035,3.7e-4 1.34523,-0.0273 2.00078,-0.17773 0.27296,-0.0439 0.55227,-0.0594 0.82715,-0.0241 0.29884,-0.0564 0.18692,-0.43524 0.16914,-0.64776 0.0123,-0.27606 0.0469,-0.55104 0.0638,-0.82724 0.0527,-0.46715 0.10741,-0.94445 0.003,-1.40865 -0.0277,-0.30817 0.0384,-0.65227 -0.15184,-0.9217 -0.25724,-0.21829 -0.62187,-0.13574 -0.93181,-0.16966 -0.5164,0.0137 -1.02712,0.11904 -1.54513,0.0999 -0.54545,0.0154 -1.09213,0.0331 -1.63706,0.0144 -0.19465,0.0115 -0.60768,-0.0999 -0.57278,0.22016 -0.021,0.11604 0.0887,0.3886 0.0522,0.12567 -0.002,-0.0148 -0.004,-0.0296 -0.006,-0.0444"
       id="path4964"
       inkscape:connector-curvature="0" />
    <path
       style="fill:#cce5ff;fill-opacity:1;stroke:#000000;stroke-width:0.09906279px;stroke-linecap:butt;stroke-linejoin:miter;stroke-opacity:1"
       d="m -222.51868,89.713665 c 0.23622,-0.49299 -0.0131,-1.04081 0.087,-1.555771 0.0257,-0.529659 0.0233,-1.062451 -0.0438,-1.58917 0.15397,-0.25282 -0.0955,-0.587179 -0.38048,-0.45457 -0.44646,0.0286 -0.89442,-0.0011 -1.34155,0.0114 -0.67034,-2.65e-4 -1.34523,0.0272 -2.00078,0.177731 -0.27295,0.044 -0.55226,0.0594 -0.82715,0.0241 -0.29884,0.0564 -0.18692,0.435258 -0.16913,0.64778 -0.0123,0.27605 -0.047,0.551039 -0.0638,0.82723 -0.0527,0.467159 -0.10742,0.944441 -0.003,1.40865 0.0277,0.30817 -0.0384,0.652258 0.15183,0.9217 0.25724,0.218299 0.62187,0.135749 0.93181,0.169658 0.5164,-0.01371 1.02712,-0.119038 1.54513,-0.1 0.54546,-0.0154 1.09213,-0.0331 1.63706,-0.01439 0.19465,-0.01151 0.60769,0.1 0.57278,-0.220171 0.021,-0.11603 -0.0887,-0.388591 -0.0522,-0.12565 0.002,0.01479 0.004,0.0296 0.006,0.0443"
       id="path5031"
       inkscape:connector-curvature="0" />
    <path
       style="fill:#ffffff;fill-opacity:1;stroke:#000000;stroke-width:0.09906279px;stroke-linecap:butt;stroke-linejoin:miter;stroke-opacity:1"
       d="m -214.08732,78.823324 c -0.15284,0.561869 -0.10506,1.147039 -0.17838,1.71266 -0.14384,0.548759 -0.054,1.104679 0.0892,1.63939 0.11308,0.697389 0.97862,0.22604 1.46178,0.38984 1.08981,0.055 2.17749,-0.0866 3.26699,-0.0491 0.82217,0.14756 0.39761,-0.87778 0.46936,-1.340411 0.0255,-0.69753 -0.0383,-1.390239 -0.0506,-2.088939 0.16476,-0.53324 -0.17609,-0.841601 -0.71285,-0.62678 -0.81116,0.0326 -1.61906,-0.143491 -2.42978,-0.0605 -0.6319,0.0534 -1.39968,-0.0295 -1.9458,0.0692 -0.0232,0.110181 -0.0617,0.264031 0.0302,0.35473 z"
       id="path4966"
       inkscape:connector-curvature="0" />
    <path
       inkscape:connector-curvature="0"
       id="path5033"
       d="m -222.51868,96.368224 c 0.23622,-0.49299 -0.0131,-1.04081 0.087,-1.555771 0.0257,-0.529659 0.0233,-1.06244 -0.0438,-1.589159 0.15397,-0.252831 -0.0955,-0.58719 -0.38048,-0.454599 -0.44646,0.0287 -0.89442,-0.0011 -1.34155,0.0114 -0.67034,-2.64e-4 -1.34523,0.0273 -2.00078,0.17775 -0.27295,0.0439 -0.55226,0.0594 -0.82715,0.0241 -0.29884,0.0564 -0.18692,0.43525 -0.16913,0.647768 -0.0123,0.276051 -0.047,0.551032 -0.0638,0.827241 -0.0527,0.46713 -0.10742,0.944441 -0.003,1.40865 0.0277,0.308142 -0.0384,0.65224 0.15183,0.921681 0.25724,0.218311 0.62187,0.13575 0.93181,0.16967 0.5164,-0.01371 1.02712,-0.11905 1.54513,-0.1 0.54546,-0.0154 1.09213,-0.0331 1.63706,-0.01439 0.19465,-0.01151 0.60769,0.1 0.57278,-0.22016 0.021,-0.11603 -0.0887,-0.388599 -0.0522,-0.125669 0.002,0.01479 0.004,0.0296 0.006,0.0444"
       style="fill:#cce5ff;fill-opacity:1;stroke:#000000;stroke-width:0.09906279px;stroke-linecap:butt;stroke-linejoin:miter;stroke-opacity:1" />
    <path
       style="fill:#ffffff;fill-opacity:1;stroke:#000000;stroke-width:0.09906279px;stroke-linecap:butt;stroke-linejoin:miter;stroke-opacity:1"
       d="m -213.81706,92.881114 c -0.23622,0.493 0.0131,1.04081 -0.087,1.555771 -0.0257,0.529659 -0.0233,1.06245 0.0438,1.589169 -0.15397,0.252831 0.0955,0.587179 0.38048,0.454581 0.44646,-0.0287 0.89442,0.0011 1.34155,-0.0114 0.67035,2.65e-4 1.34523,-0.0273 2.00078,-0.177731 0.27295,-0.0439 0.55226,-0.0595 0.82715,-0.0241 0.29884,-0.0564 0.18692,-0.435261 0.16913,-0.647772 0.0123,-0.276069 0.047,-0.55104 0.0638,-0.827249 0.0527,-0.46714 0.10742,-0.94443 0.003,-1.408649 -0.0277,-0.308161 0.0384,-0.652251 -0.15183,-0.921692 -0.25724,-0.218289 -0.62187,-0.13575 -0.93181,-0.169659 -0.5164,0.01371 -1.02712,0.119039 -1.54513,0.1 -0.54546,0.0154 -1.09213,0.0331 -1.63706,0.01439 -0.19465,0.01151 -0.60769,-0.100002 -0.57278,0.220149 -0.021,0.116041 0.0887,0.388599 0.0522,0.125669 -0.002,-0.01479 -0.004,-0.0296 -0.006,-0.0443"
       id="path4968"
       inkscape:connector-curvature="0" />
    <path
       style="fill:#ffffff;fill-opacity:1;stroke:#000000;stroke-width:0.09906279px;stroke-linecap:butt;stroke-linejoin:miter;stroke-opacity:1"
       d="m -198.21467,86.144843 c -0.23622,0.49298 0.0131,1.040821 -0.0869,1.555771 -0.0257,0.529659 -0.0233,1.06245 0.0438,1.58917 -0.15398,0.25282 0.0955,0.587168 0.38047,0.45458 0.44647,-0.0286 0.89442,0.0011 1.34155,-0.0114 0.67035,2.64e-4 1.34524,-0.0272 2.00078,-0.17775 0.27296,-0.0439 0.55227,-0.0594 0.82716,-0.0241 0.29883,-0.0564 0.18691,-0.43524 0.16913,-0.647759 0.0123,-0.27605 0.047,-0.551039 0.0638,-0.82723 0.0527,-0.467151 0.10741,-0.944451 0.003,-1.40865 -0.0277,-0.30817 0.0384,-0.652261 -0.15183,-0.921699 -0.25725,-0.218303 -0.62188,-0.135742 -0.93181,-0.169662 -0.5164,0.01371 -1.02713,0.119041 -1.54514,0.0999 -0.54545,0.0154 -1.09213,0.0331 -1.63706,0.01439 -0.19464,0.01151 -0.60768,-0.0999 -0.57278,0.22016 -0.021,0.116051 0.0887,0.388609 0.0522,0.125661 -0.002,-0.01479 -0.004,-0.0296 -0.006,-0.0444"
       id="path4982"
       inkscape:connector-curvature="0" />
    <path
       style="fill:#ffffff;fill-opacity:1;stroke:#000000;stroke-width:0.09906279px;stroke-linecap:butt;stroke-linejoin:miter;stroke-opacity:1"
       d="m -191.00348,86.253074 c -0.0222,0.587629 -0.26422,1.15979 -0.15635,1.75334 -0.0319,0.41796 -0.0497,0.83706 -0.0488,1.25757 0.0508,0.320919 0.68675,0.134559 0.96853,0.297559 0.74241,0.168992 1.5036,0.0356 2.24933,-0.0299 0.49821,-0.170231 1.22463,0.0501 1.57664,-0.340112 0.009,-0.53631 0.0405,-1.08458 2.6e-4,-1.62392 -0.0824,-0.440729 -0.11353,-0.89145 -0.0101,-1.331219 0.14086,-0.430281 -0.13104,-0.69542 -0.5588,-0.653589 -0.54783,-0.10205 -1.10185,-0.0491 -1.65053,0.009 -0.66955,0.02289 -1.34004,0.126011 -2.01028,0.0801 -0.45,-0.256259 -0.47602,0.295651 -0.36028,0.581451 z"
       id="path4984"
       inkscape:connector-curvature="0" />
    <path
       style="fill:#ffffff;fill-opacity:1;stroke:#000000;stroke-width:0.09906279px;stroke-linecap:butt;stroke-linejoin:miter;stroke-opacity:1"
       d="m -169.86705,65.343113 c -0.11352,0.70846 -0.14078,1.42675 -0.20038,2.14044 -0.0782,0.436601 -0.31229,0.882401 -0.15679,1.32941 -0.0674,0.35364 0.37327,0.48119 0.64724,0.42258 0.44946,-0.004 0.899,0.0576 1.34751,-0.001 0.76418,-0.0677 1.53044,-0.21449 2.29932,-0.14572 0.21528,0.0251 0.46411,0.10394 0.6607,-0.0189 0.15238,-0.21149 0.0468,-0.50297 0.17416,-0.73226 0.14701,-0.62539 0.15364,-1.2822 0.0195,-1.91032 -0.0457,-0.41095 0.0273,-0.82235 0.10457,-1.22484 -0.14343,-0.31974 -0.55429,-0.24624 -0.83693,-0.22839 -0.36369,-0.019 -0.72405,-0.0835 -1.089,-0.094 -0.61258,-0.0436 -1.22789,-0.0547 -1.84089,-0.0182 -0.35615,-0.0158 -0.75523,-0.12704 -1.07394,0.0877 -0.0842,0.0589 -0.0469,0.54675 0.0438,0.2201"
       id="path4986"
       inkscape:connector-curvature="0" />
    <path
       style="fill:#ffffff;fill-opacity:1;stroke:#000000;stroke-width:0.09906279px;stroke-linecap:butt;stroke-linejoin:miter;stroke-opacity:1"
       d="m -136.44781,59.499923 c -0.0386,0.6899 -0.23907,1.56016 0.0499,2.15105 0.57206,0.125121 1.15217,-0.21199 1.74438,-0.16413 0.42816,-0.104889 1.17503,0.31415 0.88292,-0.39722 -0.0594,-0.55449 0.46967,-1.57751 -0.25148,-1.80555 -0.8205,0.10132 -1.6412,-0.13167 -2.46349,-0.014 -0.13496,0.0596 -0.0185,0.17212 0.0378,0.22975 z"
       id="path4988"
       inkscape:connector-curvature="0" />
    <path
       style="fill:#ffffff;fill-opacity:1;stroke:#000000;stroke-width:0.09906279px;stroke-linecap:butt;stroke-linejoin:miter;stroke-opacity:1"
       d="m -136.59641,65.790393 c 0.0934,0.70901 -0.26383,1.42554 -0.0297,2.12428 0.43135,0.34882 1.08466,0.0755 1.60469,0.141191 0.48041,-0.11866 1.27392,0.073 1.43672,-0.54472 0.15454,-0.64796 0.16613,-1.32302 0.11166,-1.98453 -0.66858,-0.22347 -1.39658,-0.0997 -2.0861,-0.156041 -0.33963,0.0673 -1.38502,-0.26608 -1.0373,0.41982 z"
       id="path4999"
       inkscape:connector-curvature="0" />
    <path
       inkscape:connector-curvature="0"
       id="path5007"
       d="m -136.49735,74.389383 c 0.0934,-0.709009 -0.26383,-1.42553 -0.0297,-2.12426 0.43134,-0.348839 1.08465,-0.0755 1.60467,-0.1412 0.48043,0.118661 1.27394,-0.073 1.43672,0.54473 0.15455,0.647961 0.16615,1.323011 0.11167,1.98452 -0.66858,0.22347 -1.39658,0.0997 -2.08609,0.156031 -0.33963,-0.0673 -1.38502,0.266089 -1.03731,-0.419821 z"
       style="fill:#ffffff;fill-opacity:1;stroke:#000000;stroke-width:0.09906279px;stroke-linecap:butt;stroke-linejoin:miter;stroke-opacity:1" />
    <path
       inkscape:connector-curvature="0"
       id="path5009"
       d="m -136.49735,79.510604 c -0.0386,0.6899 -0.23908,1.560169 0.0499,2.15105 0.57208,0.12512 1.15217,-0.21199 1.74438,-0.16412 0.42818,-0.1049 1.17505,0.314139 0.88293,-0.39723 -0.0594,-0.554481 0.46967,-1.577511 -0.25148,-1.80555 -0.82049,0.10132 -1.64121,-0.131661 -2.4635,-0.014 -0.13497,0.0596 -0.0185,0.172121 0.0378,0.229751 z"
       style="fill:#ffffff;fill-opacity:1;stroke:#000000;stroke-width:0.09906279px;stroke-linecap:butt;stroke-linejoin:miter;stroke-opacity:1" />
    <path
       inkscape:connector-curvature="0"
       id="path5011"
       d="m -133.64514,86.940305 c 0.0386,0.689898 0.2391,1.560179 -0.0499,2.151049 -0.57206,0.12513 -1.15216,-0.211989 -1.74437,-0.16411 -0.42817,-0.104892 -1.17504,0.31414 -0.88292,-0.39723 0.0594,-0.554479 -0.46968,-1.577509 0.25148,-1.80554 0.82049,0.101301 1.6412,-0.131681 2.46347,-0.014 0.13497,0.0596 0.0185,0.17213 -0.0378,0.229749 z"
       style="fill:#ffffff;fill-opacity:1;stroke:#000000;stroke-width:0.09906279px;stroke-linecap:butt;stroke-linejoin:miter;stroke-opacity:1" />
    <path
       inkscape:connector-curvature="0"
       id="path5013"
       d="m -133.60368,93.726103 c -0.0934,0.70902 0.26384,1.42554 0.0297,2.124271 -0.43135,0.348829 -1.08466,0.0755 -1.60468,0.1412 -0.48043,-0.118661 -1.27393,0.073 -1.43672,-0.54473 -0.15455,-0.647959 -0.16613,-1.323012 -0.11167,-1.984531 0.66857,-0.223459 1.39656,-0.0997 2.0861,-0.15603 0.33963,0.0673 1.38501,-0.266078 1.03731,0.41982 z"
       style="fill:#ffffff;fill-opacity:1;stroke:#000000;stroke-width:0.09906279px;stroke-linecap:butt;stroke-linejoin:miter;stroke-opacity:1" />
    <path
       style="fill:#ffffff;fill-opacity:1;stroke:#000000;stroke-width:0.09906279px;stroke-linecap:butt;stroke-linejoin:miter;stroke-opacity:1"
       d="m -133.89279,102.47631 c 0.0386,-0.68993 0.23909,-1.56019 -0.0499,-2.15106 -0.57207,-0.12513 -1.15217,0.21196 -1.74437,0.16411 -0.42817,0.1049 -1.17504,-0.31415 -0.88293,0.39723 0.0594,0.55449 -0.46967,1.5775 0.25148,1.80554 0.8205,-0.10131 1.6412,0.13166 2.46348,0.014 0.13497,-0.0596 0.0185,-0.17213 -0.0378,-0.22974 z"
       id="path5015"
       inkscape:connector-curvature="0" />
    <path
       style="fill:#cce5ff;fill-opacity:1;stroke:#000000;stroke-width:0.09906279px;stroke-linecap:butt;stroke-linejoin:miter;stroke-opacity:1"
       d="m -222.48366,102.67253 c 0.23622,-0.49299 -0.0131,-1.04081 0.0869,-1.55576 0.0257,-0.52967 0.0233,-1.06246 -0.0438,-1.589178 0.15398,-0.25282 -0.0955,-0.587168 -0.38047,-0.454567 -0.44647,0.0286 -0.89442,-0.0011 -1.34156,0.0114 -0.67034,-2.65e-4 -1.34522,0.0273 -2.00077,0.177739 -0.27296,0.044 -0.55227,0.0594 -0.82716,0.0241 -0.29883,0.0564 -0.18691,0.43525 -0.16913,0.647772 -0.0123,0.276054 -0.0469,0.551044 -0.0638,0.827234 -0.0527,0.46716 -0.10741,0.94445 -0.003,1.40865 0.0277,0.30816 -0.0384,0.65225 0.15184,0.9217 0.25724,0.2183 0.62187,0.13575 0.9318,0.16965 0.5164,-0.0137 1.02712,-0.11903 1.54513,-0.1 0.54546,-0.0154 1.09213,-0.0331 1.63706,-0.0144 0.19465,-0.0115 0.60769,0.10001 0.57279,-0.22016 0.021,-0.11603 -0.0887,-0.38859 -0.0522,-0.12565 0.002,0.0148 0.004,0.0296 0.006,0.0443"
       id="path5035"
       inkscape:connector-curvature="0" />
    <path
       inkscape:connector-curvature="0"
       id="path5037"
       d="m -222.55371,75.213733 c 0.23622,-0.492989 -0.0131,-1.04081 0.087,-1.55576 0.0257,-0.529659 0.0233,-1.06245 -0.0438,-1.589179 0.15398,-0.25283 -0.0955,-0.587181 -0.38047,-0.454591 -0.44647,0.0287 -0.89442,-0.001 -1.34156,0.0114 -0.67034,-3.7e-4 -1.34522,0.0273 -2.00078,0.17774 -0.27295,0.044 -0.55226,0.0595 -0.82715,0.0241 -0.29883,0.0564 -0.18691,0.43524 -0.16913,0.64777 -0.0123,0.27605 -0.0469,0.55104 -0.0638,0.82724 -0.0527,0.46713 -0.10742,0.94444 -0.003,1.40864 0.0277,0.30817 -0.0384,0.65226 0.15183,0.9217 0.25725,0.2183 0.62187,0.13575 0.93181,0.16966 0.5164,-0.0137 1.02712,-0.11905 1.54513,-0.1 0.54546,-0.0154 1.09213,-0.0331 1.63706,-0.0144 0.19465,-0.0115 0.60769,0.0999 0.57279,-0.220161 0.021,-0.11604 -0.0887,-0.38858 -0.0522,-0.12566 0.002,0.0148 0.004,0.0297 0.006,0.0445"
       style="fill:#cce5ff;fill-opacity:1;stroke:#000000;stroke-width:0.09906279px;stroke-linecap:butt;stroke-linejoin:miter;stroke-opacity:1" />
    <path
       style="fill:#cce5ff;fill-opacity:1;stroke:#000000;stroke-width:0.09906279px;stroke-linecap:butt;stroke-linejoin:miter;stroke-opacity:1"
       d="m -222.41361,68.384053 c 0.23622,-0.492989 -0.0131,-1.040819 0.087,-1.555759 0.0257,-0.52968 0.0233,-1.06245 -0.0438,-1.58919 0.15397,-0.252821 -0.0955,-0.587161 -0.38047,-0.45457 -0.44647,0.0286 -0.89443,-10e-4 -1.34156,0.0114 -0.67034,-3.71e-4 -1.34523,0.0273 -2.00078,0.17775 -0.27295,0.044 -0.55226,0.0594 -0.82715,0.0241 -0.29884,0.0564 -0.18692,0.43524 -0.16913,0.647779 -0.0123,0.276041 -0.0469,0.551031 -0.0638,0.827231 -0.0527,0.46714 -0.10742,0.94444 -0.003,1.40865 0.0277,0.308149 -0.0384,0.652249 0.15183,0.921689 0.25725,0.2183 0.62187,0.13574 0.93181,0.16966 0.5164,-0.0137 1.02712,-0.11904 1.54513,-0.0999 0.54546,-0.0154 1.09213,-0.0331 1.63706,-0.0144 0.19465,-0.0115 0.60769,0.1 0.57278,-0.22016 0.021,-0.11604 -0.0887,-0.38861 -0.0522,-0.12567 0.002,0.0148 0.004,0.0296 0.006,0.0443"
       id="path5039"
       inkscape:connector-curvature="0" />
    <path
       inkscape:connector-curvature="0"
       id="path5041"
       d="m -222.34356,61.764524 c 0.23622,-0.492991 -0.0131,-1.040821 0.087,-1.555761 0.0257,-0.52968 0.0233,-1.06246 -0.0438,-1.58919 0.15397,-0.252819 -0.0955,-0.587169 -0.38048,-0.454569 -0.44646,0.0286 -0.89442,-0.001 -1.34155,0.0114 -0.67034,-3.79e-4 -1.34523,0.0272 -2.00078,0.177751 -0.27296,0.044 -0.55226,0.0594 -0.82715,0.0241 -0.29884,0.0564 -0.18692,0.43524 -0.16913,0.64777 -0.0123,0.276049 -0.0469,0.551039 -0.0638,0.827229 -0.0527,0.46715 -0.10742,0.94444 -0.003,1.40865 0.0277,0.308161 -0.0384,0.65226 0.15183,0.92169 0.25724,0.218311 0.62187,0.13575 0.93181,0.169671 0.5164,-0.0137 1.02712,-0.11904 1.54513,-0.0999 0.54546,-0.0154 1.09213,-0.0331 1.63706,-0.0144 0.19465,-0.0115 0.60769,0.0999 0.57278,-0.220161 0.021,-0.116049 -0.0887,-0.388609 -0.0522,-0.125669 0.002,0.0148 0.004,0.0296 0.006,0.0444"
       style="fill:#cce5ff;fill-opacity:1;stroke:#000000;stroke-width:0.09906279px;stroke-linecap:butt;stroke-linejoin:miter;stroke-opacity:1" />
    <path
       inkscape:connector-curvature="0"
       id="path5043"
       d="m -223.38526,102.09532 c 0.0385,-0.68991 0.23908,-1.56018 -0.05,-2.151056 -0.57207,-0.12513 -1.15217,0.211986 -1.74437,0.164126 -0.42817,0.10489 -1.17504,-0.314145 -0.88293,0.39722 0.0594,0.55449 -0.46967,1.57751 0.25148,1.80555 0.8205,-0.10132 1.6412,0.13168 2.46349,0.014 0.13496,-0.0596 0.0185,-0.17213 -0.0377,-0.22975 z"
       style="fill:#ffffff;fill-opacity:1;stroke:#000000;stroke-width:0.09906279px;stroke-linecap:butt;stroke-linejoin:miter;stroke-opacity:1" />
    <path
       inkscape:connector-curvature="0"
       id="path5045"
       d="m -223.23667,95.804844 c -0.0934,-0.709009 0.26383,-1.42553 0.0297,-2.124289 -0.43134,-0.348822 -1.08465,-0.0755 -1.60467,-0.141171 -0.48043,0.118639 -1.27393,-0.073 -1.43673,0.544711 -0.15454,0.647959 -0.16613,1.323009 -0.11166,1.984528 0.66857,0.22347 1.39657,0.0997 2.08609,0.15603 0.33963,-0.0673 1.38502,0.266081 1.03731,-0.419809 z"
       style="fill:#ffffff;fill-opacity:1;stroke:#000000;stroke-width:0.09906279px;stroke-linecap:butt;stroke-linejoin:miter;stroke-opacity:1" />
    <path
       style="fill:#ffffff;fill-opacity:1;stroke:#000000;stroke-width:0.09906279px;stroke-linecap:butt;stroke-linejoin:miter;stroke-opacity:1"
       d="m -223.33573,87.205843 c -0.0934,0.70902 0.26383,1.42553 0.0297,2.124271 -0.43134,0.34883 -1.08465,0.0755 -1.60467,0.1412 -0.48043,-0.11866 -1.27393,0.073 -1.43673,-0.544721 -0.15454,-0.647959 -0.16613,-1.323009 -0.11166,-1.984539 0.66857,-0.223459 1.39657,-0.0997 2.08609,-0.15602 0.33963,0.0673 1.38502,-0.266091 1.03731,0.419809 z"
       id="path5047"
       inkscape:connector-curvature="0" />
    <path
       style="fill:#ffffff;fill-opacity:1;stroke:#000000;stroke-width:0.09906279px;stroke-linecap:butt;stroke-linejoin:miter;stroke-opacity:1"
       d="m -223.33573,82.084644 c 0.0386,-0.68991 0.23908,-1.56018 -0.0499,-2.151061 -0.57206,-0.125129 -1.15216,0.21199 -1.74437,0.16413 -0.42817,0.104891 -1.17504,-0.314149 -0.88293,0.39722 0.0594,0.554481 -0.46967,1.577511 0.25148,1.80555 0.8205,-0.101329 1.64121,0.131651 2.46349,0.014 0.13496,-0.0596 0.0185,-0.172121 -0.0377,-0.229751 z"
       id="path5049"
       inkscape:connector-curvature="0" />
    <path
       style="fill:#ffffff;fill-opacity:1;stroke:#000000;stroke-width:0.09906279px;stroke-linecap:butt;stroke-linejoin:miter;stroke-opacity:1"
       d="m -226.18794,74.654933 c -0.0385,-0.6899 -0.23908,-1.560179 0.0499,-2.15105 0.57206,-0.12513 1.15216,0.21198 1.74437,0.16411 0.42817,0.1049 1.17504,-0.31415 0.88292,0.39723 -0.0594,0.554481 0.46967,1.577511 -0.25147,1.805531 -0.8205,-0.1013 -1.64121,0.13168 -2.46349,0.014 -0.13497,-0.0596 -0.0185,-0.17214 0.0377,-0.22975 z"
       id="path5051"
       inkscape:connector-curvature="0" />
    <path
       style="fill:#ffffff;fill-opacity:1;stroke:#000000;stroke-width:0.09906279px;stroke-linecap:butt;stroke-linejoin:miter;stroke-opacity:1"
       d="m -226.22941,67.869124 c 0.0934,-0.70901 -0.26383,-1.42553 -0.0297,-2.12427 0.43135,-0.34882 1.08466,-0.0755 1.60467,-0.141191 0.48043,0.11865 1.27393,-0.073 1.43673,0.54473 0.15454,0.647961 0.16613,1.323011 0.11166,1.98452 -0.66857,0.22347 -1.39657,0.0997 -2.08608,0.15603 -0.33964,-0.0673 -1.38503,0.2661 -1.03732,-0.419819 z"
       id="path5053"
       inkscape:connector-curvature="0" />
    <path
       inkscape:connector-curvature="0"
       id="path5055"
       d="m -225.94029,59.118933 c -0.0385,0.68992 -0.23908,1.56019 0.0499,2.151061 0.57207,0.125119 1.15217,-0.21198 1.74437,-0.16412 0.42817,-0.104891 1.17504,0.31414 0.88293,-0.397231 -0.0594,-0.55448 0.46967,-1.5775 -0.25148,-1.805539 -0.8205,0.10131 -1.64121,-0.13167 -2.46349,-0.014 -0.13496,0.0596 -0.0185,0.17213 0.0377,0.229749 z"
       style="fill:#ffffff;fill-opacity:1;stroke:#000000;stroke-width:0.09906279px;stroke-linecap:butt;stroke-linejoin:miter;stroke-opacity:1" />
  </g>
</svg>
