<?xml version="1.0" encoding="UTF-8" standalone="no"?>
<!-- Created with Inkscape (http://www.inkscape.org/) -->

<svg
   xmlns:dc="http://purl.org/dc/elements/1.1/"
   xmlns:cc="http://creativecommons.org/ns#"
   xmlns:rdf="http://www.w3.org/1999/02/22-rdf-syntax-ns#"
   xmlns:svg="http://www.w3.org/2000/svg"
   xmlns="http://www.w3.org/2000/svg"
   xmlns:sodipodi="http://sodipodi.sourceforge.net/DTD/sodipodi-0.dtd"
   xmlns:inkscape="http://www.inkscape.org/namespaces/inkscape"
   width="96.582268mm"
   height="47.554821mm"
   viewBox="0 0 96.582268 47.554821"
   version="1.1"
   id="svg6397"
   inkscape:version="0.92.4 (unknown)"
   sodipodi:docname="five-clusters.svg">
  <defs
     id="defs6391" />
  <sodipodi:namedview
     id="base"
     pagecolor="#ffffff"
     bordercolor="#666666"
     borderopacity="1.0"
     inkscape:pageopacity="0.0"
     inkscape:pageshadow="2"
     inkscape:zoom="0.35"
     inkscape:cx="1316.8034"
     inkscape:cy="-492.98976"
     inkscape:document-units="mm"
     inkscape:current-layer="layer1"
     showgrid="false"
     showborder="false"
     inkscape:pagecheckerboard="true"
     inkscape:window-width="1920"
     inkscape:window-height="1007"
     inkscape:window-x="0"
     inkscape:window-y="36"
     inkscape:window-maximized="1" />
  <metadata
     id="metadata6394">
    <rdf:RDF>
      <cc:Work
         rdf:about="">
        <dc:format>image/svg+xml</dc:format>
        <dc:type
           rdf:resource="http://purl.org/dc/dcmitype/StillImage" />
        <dc:title></dc:title>
      </cc:Work>
    </rdf:RDF>
  </metadata>
  <g
     inkscape:label="Layer 1"
     inkscape:groupmode="layer"
     id="layer1"
     transform="translate(396.02923,29.158363)">
    <path
       inkscape:connector-curvature="0"
       id="path4760"
       d="m -378.07042,-15.311618 c 0.18943,0.0437 0.37886,0.0874 0.56829,0.13105 0.0517,0.0119 0.10599,0.0155 0.15499,0.0358 0.0517,0.0214 0.0914,0.066 0.14309,0.0874 0.049,0.0203 0.10332,0.0238 0.15498,0.0357 0.13777,0.0317 0.27554,0.0636 0.41331,0.0953 0.0517,0.0119 0.10715,0.0128 0.15499,0.0358 0.10088,0.0481 0.18428,0.12881 0.28615,0.17481 0.0644,0.0291 0.13777,0.0317 0.20665,0.0477 0.15499,0.0358 0.30998,0.0715 0.46497,0.10722 0.49941,0.11517 0.99882,0.23033 1.49823,0.3455 1.46379,0.33756 2.92758,0.67512 4.39136,1.01268 0.53385,0.12311 1.06771,0.24622 1.60156,0.36933 0.20665,0.0477 0.4133,0.0953 0.61995,0.14297 0.0861,0.0199 0.16996,0.0588 0.25832,0.0596 0.079,6.35e-4 0.15155,-0.0516 0.23048,-0.0557 0.0529,-0.002 0.10333,0.0238 0.15499,0.0358 0.20665,0.0476 0.4133,0.0953 0.61996,0.14297 0.51663,0.11914 1.03326,0.23827 1.54989,0.35741"
       style="fill:none;stroke:#cd2394;stroke-width:1.33457613;stroke-linecap:butt;stroke-linejoin:miter;stroke-miterlimit:4;stroke-dasharray:none;stroke-opacity:1" />
    <path
       style="fill:none;stroke:#cd2394;stroke-width:1.33457613;stroke-linecap:butt;stroke-linejoin:miter;stroke-miterlimit:4;stroke-dasharray:none;stroke-opacity:1"
       d="m -333.60716,4.6331119 c 0.18944,0.0437 0.37887,0.0874 0.5683,0.13105 0.0517,0.01191 0.10599,0.0155 0.15499,0.0358 0.0516,0.0214 0.0914,0.066 0.14308,0.0874 0.049,0.02029 0.10333,0.02379 0.15499,0.0358 0.13777,0.0317 0.27554,0.0636 0.41331,0.0953 0.0517,0.01191 0.10715,0.01281 0.15498,0.0357 0.10089,0.0481 0.18428,0.12882 0.28616,0.17481 0.0644,0.0291 0.13777,0.0317 0.20665,0.0477 0.15499,0.0358 0.30998,0.0715 0.46496,0.10722 0.49942,0.11517 0.99883,0.230341 1.49824,0.345501 1.46379,0.337571 2.92757,0.675121 4.39136,1.012679 0.53385,0.123111 1.06771,0.246221 1.60155,0.369332 0.20666,0.0477 0.41331,0.0953 0.61996,0.14297 0.0861,0.0199 0.16996,0.0588 0.25832,0.0595 0.079,5.29e-4 0.15155,-0.0516 0.23048,-0.0557 0.053,-0.0021 0.10333,0.02379 0.15499,0.0357 0.20665,0.0476 0.41331,0.0953 0.61995,0.14297 0.51663,0.119139 1.03326,0.238268 1.5499,0.357418"
       id="path4762"
       inkscape:connector-curvature="0" />
    <path
       inkscape:connector-curvature="0"
       id="path4764"
       d="m -332.0353,-11.244228 c 0.18491,-0.06 0.3698,-0.1201 0.5547,-0.18015 0.0505,-0.0164 0.0988,-0.0413 0.15128,-0.0491 0.0553,-0.008 0.11238,0.01 0.16764,0.002 0.0524,-0.008 0.10085,-0.0328 0.15129,-0.0491 0.13446,-0.0437 0.26895,-0.0873 0.40342,-0.131019 0.0505,-0.0164 0.0985,-0.0442 0.15127,-0.0491 0.11125,-0.0107 0.2243,0.0156 0.33531,0.002 0.0702,-0.008 0.13446,-0.0437 0.20174,-0.0655 0.15127,-0.0491 0.30256,-0.0983 0.45382,-0.14739 0.48747,-0.15831 0.97492,-0.31661 1.46238,-0.47492 1.42875,-0.46399 2.8575,-0.92799 4.28625,-1.39198 0.52107,-0.16922 1.04215,-0.33845 1.56322,-0.50767 0.20172,-0.0655 0.40342,-0.13101 0.60512,-0.19651 0.0841,-0.0273 0.17599,-0.037 0.25212,-0.0819 0.068,-0.0402 0.10337,-0.12226 0.16894,-0.16639 0.0442,-0.0293 0.10084,-0.0328 0.15128,-0.0491 0.20169,-0.0656 0.40341,-0.13101 0.60511,-0.19651 0.50427,-0.16377 1.00853,-0.32753 1.5128,-0.49129"
       style="fill:none;stroke:#cd2394;stroke-width:1.33457613;stroke-linecap:butt;stroke-linejoin:miter;stroke-miterlimit:4;stroke-dasharray:none;stroke-opacity:1" />
    <path
       style="fill:none;stroke:#cd2394;stroke-width:1.33457613;stroke-linecap:butt;stroke-linejoin:miter;stroke-miterlimit:4;stroke-dasharray:none;stroke-opacity:1"
       d="m -378.89793,9.0004329 c 0.18491,-0.06 0.3698,-0.1201 0.55469,-0.18015 0.0505,-0.0164 0.0988,-0.0413 0.15129,-0.0491 0.0553,-0.008 0.11237,0.01 0.16764,0.0021 0.0524,-0.008 0.10084,-0.0328 0.15128,-0.0491 0.13446,-0.0437 0.26895,-0.0873 0.40342,-0.131008 0.0505,-0.0163 0.0985,-0.0442 0.15128,-0.0491 0.11125,-0.01069 0.2243,0.01561 0.33531,0.0021 0.0702,-0.008 0.13446,-0.0437 0.20173,-0.0655 0.15128,-0.0491 0.30256,-0.0982 0.45383,-0.147389 0.48746,-0.1583 0.97492,-0.316611 1.46238,-0.474911 1.42875,-0.463989 2.8575,-0.927989 4.28625,-1.391989 0.52107,-0.16922 1.04214,-0.338439 1.56321,-0.507661 0.20173,-0.0655 0.40342,-0.131019 0.60512,-0.19652 0.0841,-0.0272 0.176,-0.037 0.25213,-0.0819 0.068,-0.0402 0.10337,-0.122261 0.16893,-0.166402 0.0442,-0.0293 0.10085,-0.0328 0.15129,-0.0491 0.20168,-0.0656 0.40341,-0.131011 0.60511,-0.19652 0.50427,-0.163761 1.00853,-0.327519 1.5128,-0.491291"
       id="path4766"
       inkscape:connector-curvature="0" />
    <path
       style="fill:#f3ece5;fill-opacity:1;stroke:#000000;stroke-width:0.21207604px;stroke-linecap:butt;stroke-linejoin:miter;stroke-opacity:1"
       d="m -366.6891,-17.542268 c 0.9375,4.17694 -1.77587,8.0923799 -1.13129,12.2904599 0.41627,4.165189 -0.9643,8.296449 -0.39293,12.432749 1.5473,1.639922 -0.89978,5.8492701 2.40429,4.7357821 5.28569,0.970788 10.47722,-0.52882 15.69846,-1.084831 3.70002,-0.0131 7.35835,0.515379 11.08183,0.35212 2.52065,-0.254801 8.30635,2.549711 8.55477,-1.2834801 0.23928,-4.012681 -0.27017,-8.058071 0.16944,-12.044201 1.18054,-4.017779 1.23237,-8.2007689 0.82851,-12.3404089 -0.0119,-2.59861 0.7358,-5.328781 -2.91739,-4.61167 -9.34973,-0.643201 -18.71031,0.38354 -28.06947,0.34654 -1.09646,0.64045 -7.82764,-1.095531 -6.22622,1.20694 z"
       id="path4697"
       inkscape:connector-curvature="0" />
    <path
       style="fill:#cce5ff;fill-opacity:1;stroke:#000000;stroke-width:0.21207604px;stroke-linecap:butt;stroke-linejoin:miter;stroke-opacity:1"
       d="m -394.50676,-24.215509 c 0.002,2.637911 0.2076,5.317271 -0.45416,7.899691 -0.14574,1.82988 0.18543,3.72664 -0.46789,5.48929 -0.31734,1.2315199 0.31582,2.9966799 1.85753,2.7351399 3.0442,-0.0931 6.05796,-0.77632 9.11758,-0.5782 1.55782,0.0861 3.15431,0.22522 4.6792,-0.19951 1.18222,0.48686 3.3236,0.16838 2.97008,-1.5392999 -0.20717,-3.28762 0.59784,-6.52549 0.87257,-9.787161 -0.5764,-1.4105 0.26373,-3.83277 -1.44085,-4.4816 -1.51778,-0.18371 -3.04269,-0.505969 -4.57631,-0.38453 -3.71267,0.45188 -7.46019,-0.0932 -11.17858,0.17605 -0.36075,0.0404 -0.72036,0.0904 -1.0792,0.14504"
       id="path4699"
       inkscape:connector-curvature="0" />
    <path
       style="fill:#cce5ff;fill-opacity:1;stroke:#000000;stroke-width:0.21207604px;stroke-linecap:butt;stroke-linejoin:miter;stroke-opacity:1"
       d="m -395.03162,0.9028619 c -1.07894,3.087299 -0.34766,6.410971 -0.64096,9.5903391 0.13363,2.235851 -0.54102,4.56175 -0.0939,6.716472 2.24424,0.60125 4.97767,-0.0778 7.41088,0.366048 2.9973,-0.007 6.06937,1.155851 9.00626,0.18206 2.45981,0.652682 3.42966,-1.176099 3.10998,-3.37739 0.0968,-4.122719 -0.3121,-8.2471391 0.031,-12.3559701 -0.22927,-3.302929 -4.43829,-0.672119 -6.50727,-1.256168 -3.69883,0.244409 -7.42122,0.23839 -11.10858,-0.128971 -0.41121,0.004 -0.85309,0.02259 -1.20738,0.26358 z"
       id="path4701"
       inkscape:connector-curvature="0" />
    <path
       style="fill:#cce5ff;fill-opacity:1;stroke:#000000;stroke-width:0.21207604px;stroke-linecap:butt;stroke-linejoin:miter;stroke-opacity:1"
       d="m -320.12639,-24.965309 c -0.42706,2.1146 -0.33082,4.25817 -0.28428,6.381851 -0.25151,2.08983 -0.30802,4.21411 -0.72927,6.26814 -1.11914,1.93422 -0.55149,4.4630599 2.08943,3.8790499 2.47621,0.58346 5.04013,0.5273 7.57797,0.47535 2.67343,0.15764 5.14072,-1.14118 7.75473,-1.39066 1.74668,0.44098 3.54251,0.9266 3.14808,-1.5423499 -0.002,-1.76226 0.24625,-3.48673 0.54497,-5.21837 0.16152,-2.01248 0.85962,-4.040911 0.17435,-6.038501 -0.54213,-1.5517 -0.2013,-4.16383 -2.6293,-3.28145 -2.27059,-0.0504 -4.48939,0.46606 -6.76072,0.35812 -3.04763,0.007 -6.09217,-0.119 -9.14147,-0.0825 -0.45992,-0.007 -2.40424,0.35507 -1.29503,-0.25897"
       id="path4703"
       inkscape:connector-curvature="0" />
    <path
       style="fill:#cce5ff;fill-opacity:1;stroke:#000000;stroke-width:0.21207604px;stroke-linecap:butt;stroke-linejoin:miter;stroke-opacity:1"
       d="m -321.77596,0.6779219 c -0.17015,2.139939 -0.25392,4.27795 -0.1947,6.417781 -0.21124,3.4789581 -0.66337,6.9406001 -0.98964,10.4005481 1.14218,0.76608 3.21504,0.387602 4.74525,0.78314 3.92856,0.125841 7.78328,-0.86592 11.69433,-1.083519 1.93348,0.0356 4.9302,0.441849 6.20899,-0.056 -0.34435,-3.26754 -0.22306,-6.567352 -0.33919,-9.8483021 0.47629,-1.93961 0.0856,-3.916598 -0.0907,-5.853819 0.49172,-1.65358 -0.32865,-3.252721 -2.2134,-2.50516 -3.22796,0.136128 -6.4558,0.085 -9.68273,0.28557 -2.76239,0.311949 -5.51815,-0.033 -8.27547,-0.210309 -1.62236,-0.618442 -1.35571,0.61304 -0.86273,1.670119 z"
       id="path4705"
       inkscape:connector-curvature="0" />
    <path
       inkscape:connector-curvature="0"
       id="path4707"
       d="m -390.26245,-19.487529 c -0.0476,1.258021 -0.56565,2.482901 -0.33472,3.753601 -0.0682,0.89475 -0.10639,1.79201 -0.10438,2.69221 0.10873,0.68704 1.47019,0.28808 2.07343,0.63704 1.58938,0.36177 3.21894,0.0764 4.81542,-0.0639 1.06659,-0.36441 2.62174,0.10733 3.37531,-0.72809 0.0185,-1.14814 0.0868,-2.32189 10e-4,-3.47654 -0.17644,-0.94352 -0.24304,-1.90843 -0.0214,-2.84992 0.30155,-0.921131 -0.28055,-1.48873 -1.1963,-1.399231 -1.1728,-0.21844 -2.35886,-0.10524 -3.53351,0.0185 -1.43337,0.049 -2.86877,0.26977 -4.30364,0.17149 -0.96336,-0.54863 -1.01907,0.63293 -0.7713,1.24478 z"
       style="fill:#ffffff;fill-opacity:1;stroke:#000000;stroke-width:0.21207604px;stroke-linecap:butt;stroke-linejoin:miter;stroke-opacity:1" />
    <text
       id="text4711"
       y="-15.086957"
       x="-387.0813"
       style="font-style:normal;font-weight:normal;font-size:3.39321661px;line-height:1.25;font-family:'Alegreya Sans';letter-spacing:0px;word-spacing:0px;fill:#000000;fill-opacity:1;stroke:none;stroke-width:0.21207604"
       xml:space="preserve"><tspan
         style="font-size:4.52428913px;stroke-width:0.21207604"
         y="-15.086957"
         x="-387.0813"
         id="tspan4709"
         sodipodi:role="line">A</tspan></text>
    <path
       inkscape:connector-curvature="0"
       id="path4713"
       d="m -390.85502,6.1540429 c -0.5057,1.055399 0.0281,2.228188 -0.18614,3.33062 -0.0551,1.1339081 -0.0498,2.2745191 0.0938,3.4021391 -0.32962,0.54125 0.20439,1.257041 0.81454,0.97318 0.9558,-0.0612 1.9148,0.003 2.87203,-0.02429 1.43509,7.94e-4 2.8799,-0.0583 4.28331,-0.380521 0.58435,-0.0941 1.1823,-0.12736 1.77079,-0.0516 0.63976,-0.12074 0.40016,-0.931791 0.36208,-1.386771 0.0263,-0.590979 0.1005,-1.179669 0.13665,-1.77097 0.1128,-1.0000591 0.22995,-2.0218801 0.006,-3.0156711 -0.0594,-0.659709 0.0822,-1.39636 -0.32505,-1.97317 -0.55071,-0.467349 -1.33131,-0.290629 -1.99484,-0.363228 -1.10552,0.0293 -2.19888,0.25486 -3.30786,0.21399 -1.16772,0.0329 -2.33805,0.0709 -3.50465,0.0308 -0.41671,0.02439 -1.30095,-0.214061 -1.22623,0.471318 -0.0449,0.24842 0.18991,0.831922 0.1118,0.269031 -0.004,-0.0317 -0.008,-0.0634 -0.0123,-0.0951"
       style="fill:#ffffff;fill-opacity:1;stroke:#000000;stroke-width:0.21207604px;stroke-linecap:butt;stroke-linejoin:miter;stroke-opacity:1" />
    <text
       id="text4717"
       y="11.084778"
       x="-387.56784"
       style="font-style:normal;font-weight:normal;font-size:3.39321661px;line-height:1.25;font-family:'Alegreya Sans';letter-spacing:0px;word-spacing:0px;fill:#000000;fill-opacity:1;stroke:none;stroke-width:0.21207604"
       xml:space="preserve"><tspan
         style="font-size:4.52428913px;stroke-width:0.21207604"
         y="11.084778"
         x="-387.56784"
         id="tspan4715"
         sodipodi:role="line">B</tspan></text>
    <path
       inkscape:connector-curvature="0"
       id="path4719"
       d="m -360.04581,-7.2561181 c -0.21921,1.47911 -0.32181,2.9749 -0.46766,4.46309 -0.0711,1.17938 -0.0778,2.361549 -0.0626,3.542631 1.53791,0.285429 3.12867,0.0939 4.6716,0.393829 1.69672,0.345181 3.38182,-0.226951 5.07534,-0.32004 0.87135,-0.853519 0.25432,-2.272649 0.31723,-3.35226 -0.2782,-1.54142 -0.11734,-3.09907 -0.11561,-4.64832 -0.39488,-1.14585 -2.03746,0.0357 -2.96315,-0.34332 -1.69748,0.0876 -3.40299,-0.0971 -5.09374,0.0862 -0.45361,-0.031 -0.97463,-0.13343 -1.36145,0.17824 z"
       style="fill:#ffffff;fill-opacity:1;stroke:#000000;stroke-width:0.21207604px;stroke-linecap:butt;stroke-linejoin:miter;stroke-opacity:1" />
    <text
       id="text4723"
       y="-1.5300996"
       x="-357.02374"
       style="font-style:normal;font-weight:normal;font-size:3.39321661px;line-height:1.25;font-family:'Alegreya Sans';letter-spacing:0px;word-spacing:0px;fill:#000000;fill-opacity:1;stroke:none;stroke-width:0.21207604"
       xml:space="preserve"><tspan
         style="font-size:4.52428913px;stroke-width:0.21207604"
         y="-1.5300996"
         x="-357.02374"
         id="tspan4721"
         sodipodi:role="line">C</tspan></text>
    <path
       inkscape:connector-curvature="0"
       id="path4725"
       d="m -346.70967,-7.3096681 c -0.24304,1.51668 -0.30138,3.0544 -0.42899,4.58229 -0.16737,0.934679 -0.66855,1.889081 -0.33566,2.84605 -0.14436,0.757071 0.79911,1.030139 1.38563,0.90465 0.96222,-0.009 1.92459,0.12328 2.88479,-0.0021 1.63598,-0.144931 3.27639,-0.4592 4.92244,-0.31197 0.46088,0.0537 0.99358,0.22252 1.41444,-0.0406 0.32623,-0.45279 0.10029,-1.076791 0.37288,-1.56767 0.31469,-1.338828 0.3289,-2.74493 0.0419,-4.08964 -0.0977,-0.87977 0.0584,-1.76051 0.22385,-2.62218 -0.30705,-0.68451 -1.18664,-0.52716 -1.79174,-0.48895 -0.77859,-0.0407 -1.55005,-0.17865 -2.33134,-0.20126 -1.31145,-0.0935 -2.6287,-0.1171 -3.94103,-0.0391 -0.76245,-0.0339 -1.61681,-0.27196 -2.29912,0.18767 -0.18036,0.12628 -0.1003,1.1705 0.0938,0.47122"
       style="fill:#ffffff;fill-opacity:1;stroke:#000000;stroke-width:0.21207604px;stroke-linecap:butt;stroke-linejoin:miter;stroke-opacity:1" />
    <text
       id="text4729"
       y="-1.9017599"
       x="-343.42249"
       style="font-style:normal;font-weight:normal;font-size:3.39321661px;line-height:1.25;font-family:'Alegreya Sans';letter-spacing:0px;word-spacing:0px;fill:#000000;fill-opacity:1;stroke:none;stroke-width:0.21207604"
       xml:space="preserve"><tspan
         style="font-size:4.52428913px;stroke-width:0.21207604"
         y="-1.9017599"
         x="-343.42249"
         id="tspan4727"
         sodipodi:role="line">D</tspan></text>
    <path
       inkscape:connector-curvature="0"
       id="path4731"
       d="m -315.40433,-20.335939 c -0.32723,1.202871 -0.22492,2.455611 -0.3819,3.666491 -0.30793,1.1748 -0.11559,2.36495 0.19087,3.50966 0.24209,1.49299 2.09506,0.48392 3.12941,0.8346 2.33309,0.11769 4.66162,-0.18545 6.99406,-0.10517 1.76012,0.31589 0.85122,-1.87916 1.00481,-2.86956 0.0547,-1.49331 -0.082,-2.97628 -0.10842,-4.472051 0.35274,-1.14159 -0.37698,-1.80173 -1.52608,-1.34185 -1.73655,0.0697 -3.46612,-0.30719 -5.20172,-0.12964 -1.35281,0.114131 -2.99648,-0.0631 -4.16563,0.14811 -0.0497,0.23588 -0.13208,0.56524 0.0646,0.7594 z"
       style="fill:#ffffff;fill-opacity:1;stroke:#000000;stroke-width:0.21207604px;stroke-linecap:butt;stroke-linejoin:miter;stroke-opacity:1" />
    <text
       id="text4735"
       y="-15.034054"
       x="-311.48093"
       style="font-style:normal;font-weight:normal;font-size:3.39321661px;line-height:1.25;font-family:'Alegreya Sans';letter-spacing:0px;word-spacing:0px;fill:#000000;fill-opacity:1;stroke:none;stroke-width:0.21207604"
       xml:space="preserve"><tspan
         style="font-size:4.52428913px;stroke-width:0.21207604"
         y="-15.034054"
         x="-311.48093"
         id="tspan4733"
         sodipodi:role="line">E</tspan></text>
    <path
       style="fill:#ffffff;fill-opacity:1;stroke:#000000;stroke-width:0.20028232px;stroke-linecap:butt;stroke-linejoin:miter;stroke-opacity:1"
       d="m -317.1481,4.4242229 c -0.27777,1.312199 -0.37876,2.683828 -0.10152,4.005059 0.002,1.285481 -0.18195,2.5747401 -0.0204,3.8571801 -0.33596,0.61562 -0.0786,1.601259 0.6882,1.724121 0.80338,0.02609 1.61166,-0.127641 2.40957,0.01921 2.44524,0.0428 4.82612,-0.747749 7.27509,-0.633388 0.68624,0.0515 1.46873,-0.443561 1.22889,-1.210771 0.0182,-0.94435 0.0618,-1.890699 -0.0761,-2.8299091 -0.0898,-0.85543 -0.19385,-1.71618 -0.13199,-2.577441 -0.28703,-1.008129 0.2491,-2.15565 -0.37358,-3.083848 -0.56316,-0.478491 -1.37312,-0.235231 -2.04364,-0.40549 -1.2538,-0.110411 -2.50028,0.0937 -3.73481,0.28017 -1.33141,0.145798 -2.67488,0.200398 -3.99377,0.445899 -0.36641,-0.0838 -1.50185,-0.367151 -1.12601,0.4092 z"
       id="path4737"
       inkscape:connector-curvature="0" />
    <text
       xml:space="preserve"
       style="font-style:normal;font-variant:normal;font-weight:normal;font-stretch:normal;font-size:4.52428913px;line-height:1.25;font-family:'Alegreya Sans';-inkscape-font-specification:'sans-serif, Normal';font-variant-ligatures:normal;font-variant-caps:normal;font-variant-numeric:normal;font-feature-settings:normal;text-align:start;letter-spacing:0px;word-spacing:0px;writing-mode:lr-tb;text-anchor:start;fill:#000000;fill-opacity:1;stroke:none;stroke-width:0.21207604"
       x="-313.13049"
       y="10.534214"
       id="text4748"><tspan
         sodipodi:role="line"
         id="tspan4752"
         x="-313.13049"
         y="10.534214"
         style="stroke-width:0.21207604">F</tspan></text>
    <text
       xml:space="preserve"
       style="font-style:normal;font-weight:normal;font-size:3.39321661px;line-height:1.25;font-family:'Alegreya Sans';letter-spacing:0px;word-spacing:0px;fill:#000000;fill-opacity:1;stroke:none;stroke-width:0.21207604"
       x="-394.43179"
       y="-26.764858"
       id="text4794"><tspan
         sodipodi:role="line"
         id="tspan4792"
         x="-394.43179"
         y="-26.764858"
         style="font-weight:bold;font-size:2.26214457px;stroke-width:0.21207604">Edge</tspan></text>
    <text
       xml:space="preserve"
       style="font-style:normal;font-weight:normal;font-size:2.26214457px;line-height:1.25;font-family:'Alegreya Sans';letter-spacing:0px;word-spacing:0px;fill:#000000;fill-opacity:1;stroke:none;stroke-width:0.21207604"
       x="-395.03162"
       y="-1.4215372"
       id="text4798"><tspan
         sodipodi:role="line"
         id="tspan4796"
         x="-395.03162"
         y="-1.4215372"
         style="font-weight:bold;stroke-width:0.21207604">Edge</tspan></text>
    <text
       xml:space="preserve"
       style="font-style:normal;font-weight:normal;font-size:2.26214457px;line-height:1.25;font-family:'Alegreya Sans';letter-spacing:0px;word-spacing:0px;fill:#000000;fill-opacity:1;stroke:none;stroke-width:0.21207604"
       x="-320.50128"
       y="-27.439663"
       id="text4802"><tspan
         sodipodi:role="line"
         id="tspan4800"
         x="-320.50128"
         y="-27.439663"
         style="font-weight:bold;stroke-width:0.21207604">Edge</tspan></text>
    <text
       xml:space="preserve"
       style="font-style:normal;font-weight:normal;font-size:2.26214457px;line-height:1.25;font-family:'Alegreya Sans';letter-spacing:0px;word-spacing:0px;fill:#000000;fill-opacity:1;stroke:none;stroke-width:0.21207604"
       x="-321.85092"
       y="-2.8461568"
       id="text4806"><tspan
         sodipodi:role="line"
         id="tspan4804"
         x="-321.85092"
         y="-2.8461568"
         style="font-weight:bold;stroke-width:0.21207604">Edge</tspan></text>
    <text
       xml:space="preserve"
       style="font-style:normal;font-weight:normal;font-size:2.26214457px;line-height:1.25;font-family:'Alegreya Sans';letter-spacing:0px;word-spacing:0px;fill:#000000;fill-opacity:1;stroke:none;stroke-width:0.21207604"
       x="-366.83908"
       y="-21.141323"
       id="text4810"><tspan
         sodipodi:role="line"
         id="tspan4808"
         x="-366.83908"
         y="-21.141323"
         style="stroke-width:0.21207604">Central cluster</tspan></text>
  </g>
</svg>
