<?xml version="1.0" encoding="UTF-8" standalone="no"?>
<!-- Created with Inkscape (http://www.inkscape.org/) -->

<svg
   xmlns:dc="http://purl.org/dc/elements/1.1/"
   xmlns:cc="http://creativecommons.org/ns#"
   xmlns:rdf="http://www.w3.org/1999/02/22-rdf-syntax-ns#"
   xmlns:svg="http://www.w3.org/2000/svg"
   xmlns="http://www.w3.org/2000/svg"
   xmlns:sodipodi="http://sodipodi.sourceforge.net/DTD/sodipodi-0.dtd"
   xmlns:inkscape="http://www.inkscape.org/namespaces/inkscape"
   width="82.111465mm"
   height="78.312172mm"
   viewBox="0 0 82.111465 78.312172"
   version="1.1"
   id="svg1283"
   inkscape:version="0.92.4 (unknown)"
   sodipodi:docname="one-cluster.svg">
  <defs
     id="defs1277" />
  <sodipodi:namedview
     id="base"
     pagecolor="#ffffff"
     bordercolor="#666666"
     borderopacity="1.0"
     inkscape:pageopacity="0.0"
     inkscape:pageshadow="2"
     inkscape:zoom="1"
     inkscape:cx="211.86838"
     inkscape:cy="198.8528"
     inkscape:document-units="mm"
     inkscape:current-layer="layer1"
     showgrid="true"
     showguides="true"
     inkscape:pagecheckerboard="false"
     showborder="false"
     inkscape:window-width="1920"
     inkscape:window-height="1007"
     inkscape:window-x="0"
     inkscape:window-y="36"
     inkscape:window-maximized="1">
    <inkscape:grid
       type="xygrid"
       id="grid1869"
       originx="144.69225"
       originy="-11.945198" />
  </sodipodi:namedview>
  <metadata
     id="metadata1280">
    <rdf:RDF>
      <cc:Work
         rdf:about="">
        <dc:format>image/svg+xml</dc:format>
        <dc:type
           rdf:resource="http://purl.org/dc/dcmitype/StillImage" />
        <dc:title></dc:title>
      </cc:Work>
    </rdf:RDF>
  </metadata>
  <g
     inkscape:label="Layer 1"
     inkscape:groupmode="layer"
     id="layer1"
     transform="translate(144.69226,-206.74263)">
    <path
       style="fill:#f3ece5;fill-opacity:1;stroke:#000000;stroke-width:0.26458332px;stroke-linecap:butt;stroke-linejoin:miter;stroke-opacity:1"
       d="m -142.47813,217.88959 c -0.34312,7.29778 -2.17579,14.49521 -1.72169,21.84437 0.1986,5.99275 -0.20864,11.97538 -0.36006,17.95794 0.37827,7.20788 1.19051,14.43342 1.05535,21.64353 -2.13346,4.58054 3.18744,1.1129 5.5293,2.08241 6.04173,0.25268 12.01417,1.34839 18.0491,1.77064 9.36388,1.06394 18.78512,1.95669 28.20923,1.68466 5.693989,-0.94691 11.49995,-2.30618 17.307441,-1.26707 3.564279,0.14165 9.180758,1.27894 11.660068,-0.4647 -2.375868,-4.83593 -1.025779,-10.3369 -1.295458,-15.51534 0.268388,-7.99289 0.9897,-15.99616 0.327189,-23.99776 -0.306509,-4.8773 0.722881,-9.7482 0.21766,-14.62618 0.121761,-5.00751 0.505221,-10.11636 -0.15339,-15.08428 -1.177121,-2.73877 -6.565389,-0.44042 -9.299149,-1.9618 -6.270511,-1.26457 -12.311912,1.68859 -18.542939,1.5224 -7.651134,-1.19418 -15.431782,-0.97957 -23.154152,-0.86376 -5.8155,-0.22913 -11.62543,-0.2176 -17.42237,0.26488 -3.34141,-0.0717 -7.54657,-1.69386 -10.4222,-0.78825 0.7876,2.14789 0.75143,2.80294 0.0161,5.79831 z"
       id="path3713"
       inkscape:connector-curvature="0"
       sodipodi:nodetypes="cccccccccccccccccccc" />
    <path
       style="fill:#ffffff;fill-opacity:1;stroke:#000000;stroke-width:0.26458332px;stroke-linecap:butt;stroke-linejoin:miter;stroke-opacity:1"
       d="m -134.76613,225.78834 c -1.14126,2.48493 -0.66317,5.22876 -0.79789,7.92455 -0.0441,2.28567 0.0668,4.58071 -0.0252,6.85999 0.95996,1.47747 3.22538,0.51748 4.71989,0.91969 3.62956,0.2952 7.29614,0.75528 10.91505,0.0839 1.53474,-0.67289 3.76914,0.54092 4.57256,-1.05944 -0.66519,-1.60265 -0.23063,-2.87795 -0.40877,-5.27591 0.40977,-2.3544 -0.12427,-4.88641 0.53444,-7.17075 0.88084,-1.42934 0.0141,-3.02256 -1.73675,-2.37723 -4.04192,-0.0194 -8.07786,0.89021 -12.11164,0.24677 -1.66256,-0.13801 -3.9919,-0.21152 -5.66168,-0.15153 z"
       id="path3717"
       inkscape:connector-curvature="0"
       sodipodi:nodetypes="cccccccccccc" />
    <path
       style="fill:#ffffff;fill-opacity:1;stroke:#000000;stroke-width:0.26458332px;stroke-linecap:butt;stroke-linejoin:miter;stroke-opacity:1"
       d="m -111.81433,225.83844 c -0.78396,3.02884 -0.10625,5.88606 -0.41698,8.99137 0.21508,1.67035 -0.67454,4.90073 0.49313,6.2774 1.34744,0.66841 2.47237,-0.31689 3.8565,0.16804 6.41014,1.66096 6.34149,-0.0278 9.508226,0.1368 1.76644,-0.0327 3.56589,-0.30446 5.281768,0.0458 0.945251,0.0794 1.368071,-0.96581 1.34947,-1.75483 -0.0136,-0.97507 -0.13902,-1.94303 -0.133278,-2.92114 -0.108752,-2.59646 -0.37152,-5.18385 -0.47371,-7.78066 0.192728,-0.93741 0.450339,-2.09345 -0.216691,-2.90052 -0.675061,-0.62628 -1.56323,-0.0149 -2.336991,0.004 -1.85121,0.21068 -3.715919,-0.0125 -5.572444,-0.0225 -2.65032,-0.0938 -5.30965,-0.20426 -7.95637,0.0253 -1.11442,-0.24939 -2.32226,0.2857 -3.38263,-0.26899 z"
       id="path3719"
       inkscape:connector-curvature="0"
       sodipodi:nodetypes="ccccccccccccccc" />
    <path
       style="fill:#ffffff;fill-opacity:1;stroke:#000000;stroke-width:0.26458332px;stroke-linecap:butt;stroke-linejoin:miter;stroke-opacity:1"
       d="m -89.189619,225.17281 c -0.306271,3.96607 -0.300741,8.16854 0.307078,12.1831 -0.53358,2.7753 -0.773038,5.70554 2.649001,5.61169 4.30752,-0.0518 8.739121,1.33502 12.912169,-0.25354 4.823111,0.72552 3.7959,-5.50259 3.558932,-8.98844 -1.080572,-2.74812 1.545788,-7.85988 -1.841122,-8.80821 -3.560538,0.5557 -8.066609,-0.71264 -11.638828,-0.0221 -2.25865,0.0758 -3.690572,-0.15474 -5.94723,0.27745 z"
       id="path3721"
       inkscape:connector-curvature="0"
       sodipodi:nodetypes="cccccccc" />
    <path
       style="fill:#ffffff;fill-opacity:1;stroke:#000000;stroke-width:0.26458332px;stroke-linecap:butt;stroke-linejoin:miter;stroke-opacity:1"
       d="m -135.43907,253.52809 c 8.2e-4,3.43666 -0.20368,6.9044 0.41345,10.30547 0.1985,2.07574 -0.62323,4.1239 -0.27218,6.19677 4.29858,1.2652 8.79913,0.43122 13.18985,0.43194 1.26991,0.0506 2.4676,0.21351 3.72875,0.074 0.91678,-0.0954 2.29996,-0.9066 2.0542,-2.06488 -0.31956,-0.7356 -0.36721,-1.50309 -0.24553,-2.29889 0.21738,-2.28269 0.80623,-4.59627 0.29307,-6.88278 -0.20294,-1.68202 0.23966,-3.48456 -0.52277,-5.0664 -0.54019,-1.36548 -1.94237,-0.79439 -3.03759,-0.83435 -1.50232,-0.0442 -3.01026,-0.17857 -4.5084,-0.15699 -3.24816,-0.6439 -6.57614,-0.27053 -9.84697,-0.0566 -0.42602,0.0733 -0.84673,0.18532 -1.24588,0.35263 z"
       id="path3723"
       inkscape:connector-curvature="0"
       sodipodi:nodetypes="cccccccccccccc" />
    <path
       style="fill:#ffffff;fill-opacity:1;stroke:#000000;stroke-width:0.26458332px;stroke-linecap:butt;stroke-linejoin:miter;stroke-opacity:1"
       d="m -112.8172,253.72653 c -1.00588,4.27935 -0.77982,8.72895 -1.328,13.06987 -0.44755,2.7511 1.47244,4.56569 4.05613,4.67744 3.97504,-0.053 7.15309,-0.0292 11.256955,-0.0233 2.83546,0.48125 5.826551,-0.87723 5.020252,-4.21037 0.01561,-3.67155 1.002408,-7.32668 0.22352,-10.99221 -0.0477,-1.75491 -0.0316,-4.13223 -2.59611,-3.27446 -2.10307,0.27059 -4.388007,0.13999 -6.541437,0.12154 -3.04675,0.06 -7.07218,-0.12893 -10.09131,0.63149 -0.36308,0.12188 0.29415,-0.24518 0,0 z"
       id="path3725"
       inkscape:connector-curvature="0"
       sodipodi:nodetypes="ccccccccccc" />
    <text
       xml:space="preserve"
       style="font-style:normal;font-weight:normal;font-size:3.52777767px;line-height:1.25;font-family:'Alegreya Sans';letter-spacing:0px;word-spacing:0px;fill:#000000;fill-opacity:1;stroke:none;stroke-width:0.26458332"
       x="-142.875"
       y="209.42291"
       id="text3761"><tspan
         sodipodi:role="line"
         id="tspan3759"
         x="-142.875"
         y="209.42291"
         style="stroke-width:0.26458332">Cluster</tspan></text>
    <text
       xml:space="preserve"
       style="font-style:normal;font-weight:normal;font-size:8.46666622px;line-height:1.25;font-family:'Alegreya Sans';letter-spacing:0px;word-spacing:0px;fill:#000000;fill-opacity:1;stroke:none;stroke-width:0.26458332"
       x="-128.54842"
       y="236.90083"
       id="text3777"><tspan
         sodipodi:role="line"
         id="tspan3775"
         x="-128.54842"
         y="236.90083"
         style="stroke-width:0.26458332">A</tspan></text>
    <text
       xml:space="preserve"
       style="font-style:normal;font-weight:normal;font-size:8.46666622px;line-height:1.25;font-family:'Alegreya Sans';letter-spacing:0px;word-spacing:0px;fill:#000000;fill-opacity:1;stroke:none;stroke-width:0.26458332"
       x="-105.19975"
       y="236.95094"
       id="text3781"><tspan
         sodipodi:role="line"
         id="tspan3779"
         x="-105.19975"
         y="236.95094"
         style="stroke-width:0.26458332">B</tspan></text>
    <text
       xml:space="preserve"
       style="font-style:normal;font-weight:normal;font-size:8.46666622px;line-height:1.25;font-family:'Alegreya Sans';letter-spacing:0px;word-spacing:0px;fill:#000000;fill-opacity:1;stroke:none;stroke-width:0.26458332"
       x="-82.773468"
       y="237.34364"
       id="text3785"><tspan
         sodipodi:role="line"
         id="tspan3783"
         x="-82.773468"
         y="237.34364"
         style="stroke-width:0.26458332">C</tspan></text>
    <text
       xml:space="preserve"
       style="font-style:normal;font-weight:normal;font-size:8.46666622px;line-height:1.25;font-family:'Alegreya Sans';letter-spacing:0px;word-spacing:0px;fill:#000000;fill-opacity:1;stroke:none;stroke-width:0.26458332"
       x="-129.22136"
       y="265.30206"
       id="text3789"><tspan
         sodipodi:role="line"
         id="tspan3787"
         x="-129.22136"
         y="265.30206"
         style="stroke-width:0.26458332">D</tspan></text>
    <text
       xml:space="preserve"
       style="font-style:normal;font-weight:normal;font-size:8.46666622px;line-height:1.25;font-family:'Alegreya Sans';letter-spacing:0px;word-spacing:0px;fill:#000000;fill-opacity:1;stroke:none;stroke-width:0.26458332"
       x="-106.46719"
       y="265.2359"
       id="text3793"><tspan
         sodipodi:role="line"
         id="tspan3791"
         x="-106.46719"
         y="265.2359"
         style="stroke-width:0.26458332">E</tspan></text>
    <text
       xml:space="preserve"
       style="font-style:normal;font-weight:normal;font-size:2.11666656px;line-height:1.25;font-family:'Alegreya Sans';letter-spacing:0px;word-spacing:0px;fill:#000000;fill-opacity:1;stroke:none;stroke-width:0.26458332"
       x="-135.42758"
       y="224.0024"
       id="text3797"><tspan
         sodipodi:role="line"
         id="tspan3795"
         x="-135.42758"
         y="224.0024"
         style="font-size:2.11666656px;stroke-width:0.26458332">Service</tspan></text>
    <text
       id="text3801"
       y="224.11864"
       x="-112.3435"
       style="font-style:normal;font-weight:normal;font-size:2.11666656px;line-height:1.25;font-family:'Alegreya Sans';letter-spacing:0px;word-spacing:0px;fill:#000000;fill-opacity:1;stroke:none;stroke-width:0.26458332"
       xml:space="preserve"><tspan
         style="font-size:2.11666656px;stroke-width:0.26458332"
         y="224.11864"
         x="-112.3435"
         id="tspan3799"
         sodipodi:role="line">Service</tspan></text>
    <text
       xml:space="preserve"
       style="font-style:normal;font-weight:normal;font-size:2.11666656px;line-height:1.25;font-family:'Alegreya Sans';letter-spacing:0px;word-spacing:0px;fill:#000000;fill-opacity:1;stroke:none;stroke-width:0.26458332"
       x="-89.189621"
       y="222.7254"
       id="text3805"><tspan
         sodipodi:role="line"
         id="tspan3803"
         x="-89.189621"
         y="222.7254"
         style="font-size:2.11666656px;stroke-width:0.26458332">Service</tspan></text>
    <text
       id="text3809"
       y="251.01454"
       x="-135.63751"
       style="font-style:normal;font-weight:normal;font-size:2.11666656px;line-height:1.25;font-family:'Alegreya Sans';letter-spacing:0px;word-spacing:0px;fill:#000000;fill-opacity:1;stroke:none;stroke-width:0.26458332"
       xml:space="preserve"><tspan
         style="font-size:2.11666656px;stroke-width:0.26458332"
         y="251.01454"
         x="-135.63751"
         id="tspan3807"
         sodipodi:role="line">Service</tspan></text>
    <text
       xml:space="preserve"
       style="font-style:normal;font-weight:normal;font-size:2.11666656px;line-height:1.25;font-family:'Alegreya Sans';letter-spacing:0px;word-spacing:0px;fill:#000000;fill-opacity:1;stroke:none;stroke-width:0.26458332"
       x="-113.47866"
       y="251.34528"
       id="text3813"><tspan
         sodipodi:role="line"
         id="tspan3811"
         x="-113.47866"
         y="251.34528"
         style="font-size:2.11666656px;stroke-width:0.26458332">Service</tspan></text>
    <path
       style="fill:#ffffff;fill-opacity:1;stroke:#000000;stroke-width:0.26458332px;stroke-linecap:butt;stroke-linejoin:miter;stroke-opacity:1"
       d="m -89.649801,254.16102 c -0.421248,3.45831 0.0454,6.96854 -0.198789,10.42608 -0.601279,2.62643 -1.578523,8.00348 2.76066,7.11675 4.941311,-0.0545 9.879841,-0.50549 14.816809,-0.20354 3.905081,-0.35068 1.879791,-5.60146 2.240812,-8.23457 -1.34334,-3.48833 2.12317,-7.6228 -0.57826,-10.58304 -3.511621,-0.65108 -7.116612,-0.22 -10.662822,-0.34108 -2.767788,0.71121 -6.29643,-0.16564 -8.613378,1.05894 l 0.0419,0.33703 0.19308,0.42343 z"
       id="path4812"
       inkscape:connector-curvature="0" />
    <text
       xml:space="preserve"
       style="font-style:normal;font-weight:normal;font-size:2.11666656px;line-height:1.25;font-family:'Alegreya Sans';letter-spacing:0px;word-spacing:0px;fill:#000000;fill-opacity:1;stroke:none;stroke-width:0.26458332"
       x="-89.811943"
       y="251.06464"
       id="text4825"><tspan
         sodipodi:role="line"
         id="tspan4823"
         x="-89.811943"
         y="251.06464"
         style="font-size:2.11666656px;stroke-width:0.26458332">Service</tspan></text>
    <text
       id="text4829"
       y="265.61008"
       x="-82.89402"
       style="font-style:normal;font-weight:normal;font-size:8.46666622px;line-height:1.25;font-family:'Alegreya Sans';letter-spacing:0px;word-spacing:0px;fill:#000000;fill-opacity:1;stroke:none;stroke-width:0.26458332"
       xml:space="preserve"><tspan
         style="stroke-width:0.26458332"
         y="265.61008"
         x="-82.89402"
         id="tspan4827"
         sodipodi:role="line">F</tspan></text>
  </g>
</svg>
